<svg width="627" height="615" viewBox="0 0 627 615" fill="none" xmlns="http://www.w3.org/2000/svg">
<g clip-path="url(#clip0)">
<rect width="627" height="615" fill="#2A7D4E"/>
<path d="M0 0H313V276H0V0Z" fill="#FFBA54"/>
<path d="M1 315H314V591H1V315Z" fill="#FF4260"/>
<path d="M249 35H292V78H249V35Z" fill="#56677C"/>
<path d="M258.226 73.3871C258.226 75.9341 256.162 77.9988 253.615 77.9988C251.068 77.9988 249.003 75.9341 249.003 73.3871C249.003 70.8403 251.068 68.7754 253.615 68.7754C256.162 68.7754 258.226 70.8403 258.226 73.3871ZM270.424 75.9477C270.424 75.9395 270.422 75.9312 270.422 75.9227C270.419 75.8903 270.416 75.8584 270.412 75.8265C269.903 70.7515 267.632 66.1967 264.22 62.7824C260.806 59.3691 256.25 57.097 251.175 56.5886C251.143 56.5843 251.111 56.5809 251.078 56.5784C251.07 56.5776 251.062 56.5764 251.053 56.5758C251.041 56.5746 251.029 56.5746 251.018 56.5754C250.987 56.5738 250.956 56.5707 250.925 56.5707C249.864 56.5707 249.004 57.4309 249.004 58.4922C249.004 59.4809 249.75 60.2944 250.711 60.4011C250.713 60.4013 250.714 60.4029 250.716 60.4031C254.791 60.7921 258.571 62.5659 261.502 65.4971C264.435 68.4292 266.208 72.2099 266.598 76.2852C266.598 76.2872 266.6 76.2886 266.6 76.2903C266.707 77.2505 267.52 77.9974 268.509 77.9974C269.57 77.9974 270.43 77.1374 270.43 76.0759C270.43 76.0449 270.427 76.0143 270.426 75.9836C270.426 75.9717 270.426 75.9599 270.424 75.9477V75.9477ZM281.217 75.9524C281.217 75.9481 281.216 75.9435 281.216 75.9392C281.214 75.913 281.213 75.8862 281.21 75.8605C280.683 67.7989 277.196 60.5457 271.827 55.1745H271.827C266.456 49.8044 259.202 46.317 251.14 45.7898C251.113 45.7869 251.087 45.7857 251.061 45.7839C251.056 45.7835 251.052 45.7831 251.048 45.7828C251.047 45.7827 251.046 45.783 251.045 45.783C251.005 45.7805 250.965 45.7771 250.924 45.7771C249.863 45.7771 249.003 46.6373 249.003 47.6986C249.003 48.7091 249.783 49.5356 250.774 49.6125C250.776 49.6129 250.778 49.6144 250.78 49.6145C253.993 49.8108 257.111 50.5413 260.071 51.7935C263.456 53.2255 266.498 55.2759 269.11 57.8883C271.723 60.5013 273.774 63.5428 275.206 66.9292C276.458 69.8895 277.189 73.0076 277.385 76.2202C277.386 76.2227 277.387 76.224 277.388 76.2264C277.465 77.2172 278.291 77.9976 279.302 77.9976C280.363 77.9976 281.223 77.1375 281.223 76.0761C281.223 76.0352 281.219 75.9955 281.217 75.9553C281.217 75.9542 281.217 75.9534 281.217 75.9524V75.9524ZM291.999 76.0536C291.999 76.0491 291.999 76.0457 291.999 76.041C291.502 64.9344 286.796 54.9232 279.438 47.5642V47.5641C272.078 40.2051 262.067 35.4982 250.959 35.0012C250.955 35.0011 250.951 35.0015 250.947 35.0014C250.938 35.0012 250.93 35 250.922 35C249.86 35 249 35.8604 249 36.9215C249 37.9298 249.777 38.7549 250.764 38.8351C250.773 38.8371 250.781 38.8392 250.791 38.8398C255.453 39.047 259.975 40.0666 264.26 41.8786C268.926 43.8525 273.118 46.6789 276.719 50.2793C280.32 53.8804 283.147 58.073 285.121 62.7403C286.933 67.0248 287.953 71.5474 288.16 76.209C288.161 76.219 288.163 76.2273 288.165 76.236C288.245 77.2233 289.07 78 290.078 78C291.14 78 292 77.1398 292 76.0785C292 76.0703 291.999 76.062 291.999 76.0536V76.0536Z" fill="white"/>
<path d="M240.383 134.293C238.844 132.12 202.225 81 155.5 81C108.769 81 72.1559 132.12 70.6175 134.293L68 138.002L70.6175 141.707C72.1559 143.884 108.769 195 155.5 195C202.225 195 238.844 143.884 240.383 141.707L243 138.002L240.383 134.293V134.293ZM206.026 158.655C198.165 165.411 190.208 170.747 182.377 174.516C173.17 178.947 164.127 181.194 155.5 181.194C146.872 181.194 137.828 178.947 128.621 174.516C120.79 170.747 112.833 165.411 104.973 158.655C95.7939 150.768 88.8564 142.757 85.044 138.003C88.8653 133.239 95.8154 125.216 104.973 117.346C112.833 110.59 120.79 105.254 128.621 101.485C137.829 97.0532 146.872 94.8062 155.5 94.8062C164.127 94.8062 173.17 97.0532 182.377 101.484C190.208 105.254 198.164 110.59 206.026 117.346C215.186 125.218 222.135 133.24 225.957 138.003C222.145 142.756 215.207 150.766 206.026 158.655V158.655ZM186.262 138.006C186.262 155.162 172.49 169.07 155.5 169.07C138.511 169.07 124.739 155.162 124.739 138.006C124.739 120.851 138.511 106.943 155.5 106.943C172.49 106.943 186.262 120.851 186.262 138.006Z" fill="white"/>
<g opacity="0.4">
<path d="M240.383 124.293C238.844 122.12 202.225 71 155.5 71C108.769 71 72.1559 122.12 70.6175 124.293L68 128.002L70.6175 131.707C72.1559 133.884 108.769 185 155.5 185C202.225 185 238.844 133.884 240.383 131.707L243 128.002L240.383 124.293V124.293ZM206.026 148.655C198.165 155.411 190.208 160.747 182.377 164.516C173.17 168.947 164.127 171.194 155.5 171.194C146.872 171.194 137.828 168.947 128.621 164.516C120.79 160.747 112.833 155.411 104.973 148.655C95.7939 140.768 88.8564 132.757 85.044 128.003C88.8653 123.239 95.8154 115.216 104.973 107.346C112.833 100.59 120.79 95.2537 128.621 91.4846C137.829 87.0532 146.872 84.8062 155.5 84.8062C164.127 84.8062 173.17 87.0532 182.377 91.4843C190.208 95.2537 198.164 100.59 206.026 107.346C215.186 115.218 222.135 123.24 225.957 128.003C222.145 132.756 215.207 140.766 206.026 148.655V148.655ZM186.262 128.006C186.262 145.162 172.49 159.07 155.5 159.07C138.511 159.07 124.739 145.162 124.739 128.006C124.739 110.851 138.511 96.9426 155.5 96.9426C172.49 96.9426 186.262 110.851 186.262 128.006Z" fill="#FF4260"/>
</g>
<path d="M109.398 568C107.793 568 106.181 567.554 104.753 566.645C101.44 564.535 99.9553 560.456 101.134 556.702L126.09 477.219L79.6043 465.8C76.4162 465.017 73.9432 462.495 73.2157 459.286C72.4885 456.077 73.6317 452.732 76.1692 450.644L200.969 347.972C204.101 345.395 208.597 345.338 211.794 347.836C214.99 350.333 216.034 354.718 214.306 358.393L177.212 437.3L222.419 448.542C225.515 449.312 227.939 451.725 228.729 454.823C229.52 457.921 228.549 461.204 226.201 463.369L115.268 565.704C113.625 567.221 111.518 568 109.398 568V568ZM100.562 453.057L139.196 462.547C141.523 463.119 143.51 464.63 144.686 466.724C145.861 468.817 146.12 471.304 145.4 473.596L127.41 530.89L202.608 461.52L162.78 451.616C160.26 450.989 158.153 449.263 157.039 446.911C155.924 444.561 155.92 441.832 157.027 439.478L182.228 385.871L100.562 453.057V453.057Z" fill="white"/>
<g opacity="0.39">
<path d="M84 338H240V560H84V338Z" fill="#FFBA54"/>
<path d="M120.398 560C118.793 560 117.181 559.554 115.753 558.645C112.44 556.535 110.955 552.456 112.134 548.702L137.09 469.219L90.6043 457.8C87.4162 457.017 84.9432 454.495 84.2157 451.286C83.4885 448.077 84.6317 444.732 87.1692 442.644L211.969 339.972C215.101 337.395 219.597 337.338 222.794 339.836C225.99 342.333 227.034 346.718 225.306 350.393L188.212 429.3L233.419 440.542C236.515 441.312 238.939 443.725 239.729 446.823C240.52 449.921 239.549 453.204 237.201 455.369L126.268 557.704C124.625 559.221 122.518 560 120.398 560V560ZM111.562 445.057L150.196 454.547C152.523 455.119 154.51 456.63 155.686 458.724C156.861 460.817 157.12 463.304 156.4 465.596L138.41 522.89L213.608 453.52L173.78 443.616C171.26 442.989 169.153 441.263 168.039 438.911C166.924 436.561 166.92 433.832 168.027 431.478L193.228 377.871L111.562 445.057V445.057Z" fill="white"/>
</g>
<path d="M619 415.5C619 499.723 550.723 568 466.5 568C382.277 568 314 499.723 314 415.5C314 331.277 382.277 263 466.5 263C550.723 263 619 331.277 619 415.5Z" fill="url(#paint0_linear)"/>
<path d="M545.378 415.5C545.378 459.064 510.063 494.379 466.499 494.379C422.935 494.379 387.62 459.064 387.62 415.5C387.62 371.936 422.935 336.621 466.499 336.621C510.063 336.621 545.378 371.936 545.378 415.5Z" fill="#3B5574"/>
<g opacity="0.41">
<path d="M619 233.5C619 317.723 550.723 386 466.5 386C382.277 386 314 317.723 314 233.5C314 149.277 382.277 81 466.5 81C550.723 81 619 149.277 619 233.5Z" fill="url(#paint1_linear)"/>
<path d="M545.378 233.5C545.378 277.064 510.063 312.379 466.499 312.379C422.935 312.379 387.62 277.064 387.62 233.5C387.62 189.936 422.935 154.621 466.499 154.621C510.063 154.621 545.378 189.936 545.378 233.5Z" fill="#3B5574"/>
</g>
<path fill-rule="evenodd" clip-rule="evenodd" d="M5.05645 80H0V79H5.05645V80ZM25.2823 80H15.1694V79H25.2823V80ZM45.5081 80H35.3952V79H45.5081V80ZM65.7339 80H55.621V79H65.7339V80ZM85.9597 80H75.8468V79H85.9597V80ZM106.185 80H96.0726V79H106.185V80ZM126.411 80H116.298V79H126.411V80ZM146.637 80H136.524V79H146.637V80ZM166.863 80H156.75V79H166.863V80ZM187.089 80H176.976V79H187.089V80ZM207.314 80H197.202V79H207.314V80ZM227.54 80H217.427V79H227.54V80ZM247.766 80H237.653V79H247.766V80ZM267.992 80H257.879V79H267.992V80ZM288.218 80H278.105V79H288.218V80ZM308.444 80H298.331V79H308.444V80ZM328.669 80H318.556V79H328.669V80ZM348.895 80H338.782V79H348.895V80ZM369.121 80H359.008V79H369.121V80ZM389.347 80H379.234V79H389.347V80ZM409.573 80H399.46V79H409.573V80ZM429.799 80H419.686V79H429.799V80ZM450.024 80H439.911V79H450.024V80ZM470.25 80H460.137V79H470.25V80ZM490.476 80H480.363V79H490.476V80ZM510.702 80H500.589V79H510.702V80ZM530.928 80H520.815V79H530.928V80ZM551.154 80H541.041V79H551.154V80ZM571.379 80H561.266V79H571.379V80ZM591.605 80H581.492V79H591.605V80ZM611.831 80H601.718V79H611.831V80ZM627 80H621.944V79H627V80Z" fill="#FF9900"/>
<path fill-rule="evenodd" clip-rule="evenodd" d="M5.05645 136H0V135H5.05645V136ZM25.2823 136H15.1694V135H25.2823V136ZM45.5081 136H35.3952V135H45.5081V136ZM65.7339 136H55.621V135H65.7339V136ZM85.9597 136H75.8468V135H85.9597V136ZM106.185 136H96.0726V135H106.185V136ZM126.411 136H116.298V135H126.411V136ZM146.637 136H136.524V135H146.637V136ZM166.863 136H156.75V135H166.863V136ZM187.089 136H176.976V135H187.089V136ZM207.314 136H197.202V135H207.314V136ZM227.54 136H217.427V135H227.54V136ZM247.766 136H237.653V135H247.766V136ZM267.992 136H257.879V135H267.992V136ZM288.218 136H278.105V135H288.218V136ZM308.444 136H298.331V135H308.444V136ZM328.669 136H318.556V135H328.669V136ZM348.895 136H338.782V135H348.895V136ZM369.121 136H359.008V135H369.121V136ZM389.347 136H379.234V135H389.347V136ZM409.573 136H399.46V135H409.573V136ZM429.799 136H419.686V135H429.799V136ZM450.024 136H439.911V135H450.024V136ZM470.25 136H460.137V135H470.25V136ZM490.476 136H480.363V135H490.476V136ZM510.702 136H500.589V135H510.702V136ZM530.928 136H520.815V135H530.928V136ZM551.154 136H541.041V135H551.154V136ZM571.379 136H561.266V135H571.379V136ZM591.605 136H581.492V135H591.605V136ZM611.831 136H601.718V135H611.831V136ZM627 136H621.944V135H627V136Z" fill="#FF9900"/>
<path fill-rule="evenodd" clip-rule="evenodd" d="M5.05645 198H0V197H5.05645V198ZM25.2823 198H15.1694V197H25.2823V198ZM45.5081 198H35.3952V197H45.5081V198ZM65.7339 198H55.621V197H65.7339V198ZM85.9597 198H75.8468V197H85.9597V198ZM106.185 198H96.0726V197H106.185V198ZM126.411 198H116.298V197H126.411V198ZM146.637 198H136.524V197H146.637V198ZM166.863 198H156.75V197H166.863V198ZM187.089 198H176.976V197H187.089V198ZM207.314 198H197.202V197H207.314V198ZM227.54 198H217.427V197H227.54V198ZM247.766 198H237.653V197H247.766V198ZM267.992 198H257.879V197H267.992V198ZM288.218 198H278.105V197H288.218V198ZM308.444 198H298.331V197H308.444V198ZM328.669 198H318.556V197H328.669V198ZM348.895 198H338.782V197H348.895V198ZM369.121 198H359.008V197H369.121V198ZM389.347 198H379.234V197H389.347V198ZM409.573 198H399.46V197H409.573V198ZM429.799 198H419.686V197H429.799V198ZM450.024 198H439.911V197H450.024V198ZM470.25 198H460.137V197H470.25V198ZM490.476 198H480.363V197H490.476V198ZM510.702 198H500.589V197H510.702V198ZM530.928 198H520.815V197H530.928V198ZM551.154 198H541.041V197H551.154V198ZM571.379 198H561.266V197H571.379V198ZM591.605 198H581.492V197H591.605V198ZM611.831 198H601.718V197H611.831V198ZM627 198H621.944V197H627V198Z" fill="white"/>
<path fill-rule="evenodd" clip-rule="evenodd" d="M5.05645 388H0V387H5.05645V388ZM25.2823 388H15.1694V387H25.2823V388ZM45.5081 388H35.3952V387H45.5081V388ZM65.7339 388H55.621V387H65.7339V388ZM85.9597 388H75.8468V387H85.9597V388ZM106.185 388H96.0726V387H106.185V388ZM126.411 388H116.298V387H126.411V388ZM146.637 388H136.524V387H146.637V388ZM166.863 388H156.75V387H166.863V388ZM187.089 388H176.976V387H187.089V388ZM207.314 388H197.202V387H207.314V388ZM227.54 388H217.427V387H227.54V388ZM247.766 388H237.653V387H247.766V388ZM267.992 388H257.879V387H267.992V388ZM288.218 388H278.105V387H288.218V388ZM308.444 388H298.331V387H308.444V388ZM328.669 388H318.556V387H328.669V388ZM348.895 388H338.782V387H348.895V388ZM369.121 388H359.008V387H369.121V388ZM389.347 388H379.234V387H389.347V388ZM409.573 388H399.46V387H409.573V388ZM429.799 388H419.686V387H429.799V388ZM450.024 388H439.911V387H450.024V388ZM470.25 388H460.137V387H470.25V388ZM490.476 388H480.363V387H490.476V388ZM510.702 388H500.589V387H510.702V388ZM530.928 388H520.815V387H530.928V388ZM551.154 388H541.041V387H551.154V388ZM571.379 388H561.266V387H571.379V388ZM591.605 388H581.492V387H591.605V388ZM611.831 388H601.718V387H611.831V388ZM627 388H621.944V387H627V388Z" fill="white"/>
<path fill-rule="evenodd" clip-rule="evenodd" d="M5.05645 570H0V569H5.05645V570ZM25.2823 570H15.1694V569H25.2823V570ZM45.5081 570H35.3952V569H45.5081V570ZM65.7339 570H55.621V569H65.7339V570ZM85.9597 570H75.8468V569H85.9597V570ZM106.185 570H96.0726V569H106.185V570ZM126.411 570H116.298V569H126.411V570ZM146.637 570H136.524V569H146.637V570ZM166.863 570H156.75V569H166.863V570ZM187.089 570H176.976V569H187.089V570ZM207.314 570H197.202V569H207.314V570ZM227.54 570H217.427V569H227.54V570ZM247.766 570H237.653V569H247.766V570ZM267.992 570H257.879V569H267.992V570ZM288.218 570H278.105V569H288.218V570ZM308.444 570H298.331V569H308.444V570ZM328.669 570H318.556V569H328.669V570ZM348.895 570H338.782V569H348.895V570ZM369.121 570H359.008V569H369.121V570ZM389.347 570H379.234V569H389.347V570ZM409.573 570H399.46V569H409.573V570ZM429.799 570H419.686V569H429.799V570ZM450.024 570H439.911V569H450.024V570ZM470.25 570H460.137V569H470.25V570ZM490.476 570H480.363V569H490.476V570ZM510.702 570H500.589V569H510.702V570ZM530.928 570H520.815V569H530.928V570ZM551.154 570H541.041V569H551.154V570ZM571.379 570H561.266V569H571.379V570ZM591.605 570H581.492V569H591.605V570ZM611.831 570H601.718V569H611.831V570ZM627 570H621.944V569H627V570Z" fill="white"/>
<path fill-rule="evenodd" clip-rule="evenodd" d="M249 4.95968L249 4.37114e-08L250 0L250 4.95968L249 4.95968ZM249 24.7984L249 14.879L250 14.879L250 24.7984L249 24.7984ZM249 44.6371L249 34.7177L250 34.7177L250 44.6371L249 44.6371ZM249 64.4758L249 54.5564L250 54.5564L250 64.4758L249 64.4758ZM249 84.3145L249 74.3952L250 74.3952L250 84.3145L249 84.3145ZM249 104.153L249 94.2339L250 94.2339L250 104.153L249 104.153ZM249 123.992L249 114.073L250 114.073L250 123.992L249 123.992ZM249 143.831L249 133.911L250 133.911L250 143.831L249 143.831ZM249 163.669L249 153.75L250 153.75L250 163.669L249 163.669ZM249 183.508L249 173.589L250 173.589L250 183.508L249 183.508ZM249 203.347L249 193.427L250 193.427L250 203.347L249 203.347ZM249 223.186L249 213.266L250 213.266L250 223.186L249 223.186ZM249 243.024L249 233.105L250 233.105L250 243.024L249 243.024ZM249 262.863L249 252.944L250 252.944L250 262.863L249 262.863ZM249 282.702L249 272.782L250 272.782L250 282.702L249 282.702ZM249 302.54L249 292.621L250 292.621L250 302.54L249 302.54ZM249 322.379L249 312.46L250 312.46L250 322.379L249 322.379ZM249 342.218L249 332.298L250 332.298L250 342.218L249 342.218ZM249 362.056L249 352.137L250 352.137L250 362.056L249 362.056ZM249 381.895L249 371.976L250 371.976L250 381.895L249 381.895ZM249 401.734L249 391.814L250 391.814L250 401.734L249 401.734ZM249 421.572L249 411.653L250 411.653L250 421.572L249 421.572ZM249 441.411L249 431.492L250 431.492L250 441.411L249 441.411ZM249 461.25L249 451.33L250 451.33L250 461.25L249 461.25ZM249 481.088L249 471.169L250 471.169L250 481.088L249 481.088ZM249 500.927L249 491.008L250 491.008L250 500.927L249 500.927ZM249 520.766L249 510.846L250 510.846L250 520.766L249 520.766ZM249 540.605L249 530.685L250 530.685L250 540.605L249 540.605ZM249 560.443L249 550.524L250 550.524L250 560.443L249 560.443ZM249 580.282L249 570.363L250 570.363L250 580.282L249 580.282ZM249 600.121L249 590.201L250 590.201L250 600.121L249 600.121ZM249 615L249 610.04L250 610.04L250 615L249 615Z" fill="#FF9900"/>
<path fill-rule="evenodd" clip-rule="evenodd" d="M313 4.95968L313 4.37114e-08L314 0L314 4.95968L313 4.95968ZM313 24.7984L313 14.879L314 14.879L314 24.7984L313 24.7984ZM313 44.6371L313 34.7177L314 34.7177L314 44.6371L313 44.6371ZM313 64.4758L313 54.5564L314 54.5564L314 64.4758L313 64.4758ZM313 84.3145L313 74.3952L314 74.3952L314 84.3145L313 84.3145ZM313 104.153L313 94.2339L314 94.2339L314 104.153L313 104.153ZM313 123.992L313 114.073L314 114.073L314 123.992L313 123.992ZM313 143.831L313 133.911L314 133.911L314 143.831L313 143.831ZM313 163.669L313 153.75L314 153.75L314 163.669L313 163.669ZM313 183.508L313 173.589L314 173.589L314 183.508L313 183.508ZM313 203.347L313 193.427L314 193.427L314 203.347L313 203.347ZM313 223.186L313 213.266L314 213.266L314 223.186L313 223.186ZM313 243.024L313 233.105L314 233.105L314 243.024L313 243.024ZM313 262.863L313 252.944L314 252.944L314 262.863L313 262.863ZM313 282.702L313 272.782L314 272.782L314 282.702L313 282.702ZM313 302.54L313 292.621L314 292.621L314 302.54L313 302.54ZM313 322.379L313 312.46L314 312.46L314 322.379L313 322.379ZM313 342.218L313 332.298L314 332.298L314 342.218L313 342.218ZM313 362.056L313 352.137L314 352.137L314 362.056L313 362.056ZM313 381.895L313 371.976L314 371.976L314 381.895L313 381.895ZM313 401.734L313 391.814L314 391.814L314 401.734L313 401.734ZM313 421.572L313 411.653L314 411.653L314 421.572L313 421.572ZM313 441.411L313 431.492L314 431.492L314 441.411L313 441.411ZM313 461.25L313 451.33L314 451.33L314 461.25L313 461.25ZM313 481.088L313 471.169L314 471.169L314 481.088L313 481.088ZM313 500.927L313 491.008L314 491.008L314 500.927L313 500.927ZM313 520.766L313 510.846L314 510.846L314 520.766L313 520.766ZM313 540.605L313 530.685L314 530.685L314 540.605L313 540.605ZM313 560.443L313 550.524L314 550.524L314 560.443L313 560.443ZM313 580.282L313 570.363L314 570.363L314 580.282L313 580.282ZM313 600.121L313 590.201L314 590.201L314 600.121L313 600.121ZM313 615L313 610.04L314 610.04L314 615L313 615Z" fill="#FF9900"/>
<path fill-rule="evenodd" clip-rule="evenodd" d="M68 4.95968L68 4.37114e-08L69 0L69 4.95968L68 4.95968ZM68 24.7984L68 14.879L69 14.879L69 24.7984L68 24.7984ZM68 44.6371L68 34.7177L69 34.7177L69 44.6371L68 44.6371ZM68 64.4758L68 54.5564L69 54.5564L69 64.4758L68 64.4758ZM68 84.3145L68 74.3952L69 74.3952L69 84.3145L68 84.3145ZM68 104.153L68 94.2339L69 94.2339L69 104.153L68 104.153ZM68 123.992L68 114.073L69 114.073L69 123.992L68 123.992ZM68 143.831L68 133.911L69 133.911L69 143.831L68 143.831ZM68 163.669L68 153.75L69 153.75L69 163.669L68 163.669ZM68 183.508L68 173.589L69 173.589L69 183.508L68 183.508ZM68 203.347L68 193.427L69 193.427L69 203.347L68 203.347ZM68 223.186L68 213.266L69 213.266L69 223.186L68 223.186ZM68 243.024L68 233.105L69 233.105L69 243.024L68 243.024ZM68 262.863L68 252.944L69 252.944L69 262.863L68 262.863ZM68 282.702L68 272.782L69 272.782L69 282.702L68 282.702ZM68 302.54L68 292.621L69 292.621L69 302.54L68 302.54ZM68 322.379L68 312.46L69 312.46L69 322.379L68 322.379ZM68 342.218L68 332.298L69 332.298L69 342.218L68 342.218ZM68 362.056L68 352.137L69 352.137L69 362.056L68 362.056ZM68 381.895L68 371.976L69 371.976L69 381.895L68 381.895ZM68 401.734L68 391.814L69 391.814L69 401.734L68 401.734ZM68 421.572L68 411.653L69 411.653L69 421.572L68 421.572ZM68 441.411L68 431.492L69 431.492L69 441.411L68 441.411ZM68 461.25L68 451.33L69 451.33L69 461.25L68 461.25ZM68 481.088L68 471.169L69 471.169L69 481.088L68 481.088ZM68 500.927L68 491.008L69 491.008L69 500.927L68 500.927ZM68 520.766L68 510.846L69 510.846L69 520.766L68 520.766ZM68 540.605L68 530.685L69 530.685L69 540.605L68 540.605ZM68 560.443L68 550.524L69 550.524L69 560.443L68 560.443ZM68 580.282L68 570.363L69 570.363L69 580.282L68 580.282ZM68 600.121L68 590.201L69 590.201L69 600.121L68 600.121ZM68 615L68 610.04L69 610.04L69 615L68 615Z" fill="#FF9900"/>
<path d="M291.835 97C295.915 97 298.962 98.1976 300.977 100.593C302.992 102.94 304 106.557 304 111.443V133H294.784V111.802C294.784 109.12 294.317 107.18 293.383 105.982C292.45 104.737 290.95 104.114 288.886 104.114C286.429 104.114 284.512 104.928 283.135 106.557C281.759 108.186 281.071 110.461 281.071 113.383V133H271.855V111.802C271.855 109.12 271.388 107.18 270.454 105.982C269.57 104.737 268.071 104.114 265.957 104.114C263.549 104.114 261.656 104.928 260.28 106.557C258.904 108.186 258.216 110.461 258.216 113.383V133H249V97.8623H257.995V102.82C259.076 100.904 260.575 99.4671 262.492 98.509C264.409 97.503 266.596 97 269.054 97C274.509 97 278.122 99.2036 279.891 103.611C281.022 101.551 282.644 99.9461 284.757 98.7964C286.871 97.5988 289.23 97 291.835 97Z" fill="white"/>
<path d="M418.601 81.8052V133.414H409.506V127.631C408.43 129.632 406.866 131.194 404.812 132.316C402.807 133.439 400.509 134 397.917 134C394.836 134 392.073 133.219 389.628 131.657C387.232 130.096 385.35 127.9 383.98 125.069C382.66 122.19 382 118.895 382 115.186C382 111.477 382.66 108.232 383.98 105.45C385.35 102.669 387.232 100.521 389.628 99.0083C392.024 97.4954 394.787 96.7389 397.917 96.7389C400.509 96.7389 402.807 97.2758 404.812 98.3494C406.817 99.4231 408.357 100.936 409.433 102.888V81.8052H418.601ZM400.337 126.899C403.271 126.899 405.521 125.899 407.086 123.898C408.699 121.897 409.506 119.042 409.506 115.333C409.506 111.624 408.699 108.793 407.086 106.841C405.521 104.84 403.296 103.84 400.411 103.84C397.477 103.84 395.203 104.816 393.589 106.768C391.976 108.72 391.169 111.526 391.169 115.186C391.169 118.895 391.976 121.775 393.589 123.825C395.203 125.874 397.452 126.899 400.337 126.899Z" fill="white"/>
<path d="M460.967 97.6174V133.414H452.019V127.924C450.894 129.876 449.378 131.389 447.471 132.463C445.564 133.488 443.412 134 441.016 134C432.214 134 427.813 129.071 427.813 119.213V97.6174H436.982V119.286C436.982 121.824 437.495 123.703 438.522 124.923C439.549 126.143 441.163 126.753 443.363 126.753C445.906 126.753 447.935 125.923 449.451 124.264C451.016 122.556 451.798 120.311 451.798 117.529V97.6174H460.967Z" fill="white"/>
<path d="M483.713 134C480.535 134 477.601 133.61 474.911 132.829C472.27 132.048 470.021 130.925 468.163 129.461L470.73 123.093C474.544 125.874 478.921 127.265 483.86 127.265C485.962 127.265 487.552 126.924 488.627 126.24C489.752 125.557 490.314 124.581 490.314 123.312C490.314 122.238 489.923 121.409 489.141 120.823C488.407 120.238 487.063 119.701 485.107 119.213L479.239 117.895C475.913 117.163 473.444 115.967 471.83 114.308C470.217 112.649 469.41 110.501 469.41 107.866C469.41 105.67 470.021 103.742 471.244 102.083C472.515 100.375 474.251 99.0571 476.451 98.1298C478.701 97.2026 481.292 96.7389 484.226 96.7389C486.769 96.7389 489.214 97.1294 491.561 97.9102C493.957 98.6911 496.06 99.7891 497.869 101.204L495.302 107.427C491.586 104.743 487.869 103.401 484.153 103.401C482.148 103.401 480.583 103.767 479.459 104.499C478.334 105.231 477.772 106.256 477.772 107.573C477.772 108.549 478.114 109.355 478.799 109.989C479.532 110.623 480.681 111.111 482.246 111.453L488.334 112.844C491.904 113.625 494.52 114.869 496.182 116.577C497.845 118.237 498.676 120.433 498.676 123.166C498.676 126.484 497.332 129.12 494.642 131.072C491.953 133.024 488.31 134 483.713 134Z" fill="white"/>
<path d="M506.33 110.209H528.189V117.456H506.33V110.209Z" fill="white"/>
<path d="M570.848 97.6174V133.414H561.9V127.924C560.775 129.876 559.259 131.389 557.352 132.463C555.445 133.488 553.293 134 550.897 134C542.095 134 537.694 129.071 537.694 119.213V97.6174H546.863V119.286C546.863 121.824 547.376 123.703 548.403 124.923C549.43 126.143 551.044 126.753 553.244 126.753C555.787 126.753 557.817 125.923 559.332 124.264C560.897 122.556 561.68 120.311 561.68 117.529V97.6174H570.848Z" fill="white"/>
<path d="M580.391 97.6174H589.56V133.414H580.391V97.6174ZM590 81V90.0041H579.878V81H590Z" fill="white"/>
</g>
<defs>
<linearGradient id="paint0_linear" x1="381.626" y1="263" x2="536.668" y2="524.792" gradientUnits="userSpaceOnUse">
<stop stop-color="#FF9900"/>
<stop offset="1" stop-color="#FFBA54"/>
</linearGradient>
<linearGradient id="paint1_linear" x1="381.626" y1="81" x2="536.668" y2="342.792" gradientUnits="userSpaceOnUse">
<stop stop-color="#FF9900"/>
<stop offset="1" stop-color="#FFBA54"/>
</linearGradient>
<clipPath id="clip0">
<rect width="627" height="615" fill="white"/>
</clipPath>
</defs>
</svg>
