<svg width="721" height="358" viewBox="0 0 721 358" fill="none" xmlns="http://www.w3.org/2000/svg">
<rect width="721" height="358" fill="#EEEEEE"/>
<rect x="28" y="22" width="670" height="315" fill="#FFBA54"/>
<path d="M221.288 265L198.824 212.872H92.84L70.376 265H46.184L135.464 61.96H155.912L245.192 265H221.288ZM101.192 193.288H190.472L145.832 89.32L101.192 193.288ZM328.874 121.288C346.73 121.288 359.978 125.896 368.618 135.112C377.45 144.136 381.866 157.96 381.866 176.584V265H359.114V241.096C355.466 249.352 349.898 255.784 342.41 260.392C334.922 264.808 326.282 267.016 316.49 267.016C307.466 267.016 299.114 265.192 291.434 261.544C283.946 257.896 277.994 252.808 273.578 246.28C269.162 239.752 266.954 232.552 266.954 224.68C266.954 214.12 269.642 205.96 275.018 200.2C280.394 194.248 289.226 190.024 301.514 187.528C313.802 184.84 330.89 183.496 352.778 183.496H359.114V173.992C359.114 162.28 356.714 153.832 351.914 148.648C347.114 143.272 339.338 140.584 328.586 140.584C312.458 140.584 296.426 145.576 280.49 155.56L272.714 138.568C280.01 133.384 288.746 129.256 298.922 126.184C309.29 122.92 319.274 121.288 328.874 121.288ZM319.658 248.584C331.178 248.584 340.586 244.744 347.882 237.064C355.37 229.192 359.114 219.112 359.114 206.824V198.472H353.93C337.034 198.472 324.17 199.24 315.338 200.776C306.506 202.12 300.17 204.52 296.33 207.976C292.682 211.24 290.858 216.136 290.858 222.664C290.858 230.152 293.546 236.392 298.922 241.384C304.49 246.184 311.402 248.584 319.658 248.584Z" fill="#EEEEEE"/>
<path d="M221.288 265L220.37 265.396L220.63 266H221.288V265ZM198.824 212.872L199.742 212.476L199.482 211.872H198.824V212.872ZM92.84 212.872V211.872H92.182L91.9216 212.476L92.84 212.872ZM70.376 265V266H71.034L71.2944 265.396L70.376 265ZM46.184 265L45.2686 264.597L44.6519 266H46.184V265ZM135.464 61.96V60.96H134.811L134.549 61.5575L135.464 61.96ZM155.912 61.96L156.827 61.5575L156.565 60.96H155.912V61.96ZM245.192 265V266H246.724L246.107 264.597L245.192 265ZM101.192 193.288L100.273 192.893L99.6744 194.288H101.192V193.288ZM190.472 193.288V194.288H191.99L191.391 192.893L190.472 193.288ZM145.832 89.32L146.751 88.9255L145.832 86.7854L144.913 88.9255L145.832 89.32ZM222.206 264.604L221.083 261.998L219.246 262.789L220.37 265.396L222.206 264.604ZM218.837 256.785L216.59 251.572L214.754 252.364L217 257.577L218.837 256.785ZM214.344 246.359L212.098 241.147L210.261 241.938L212.507 247.151L214.344 246.359ZM209.851 235.934L207.605 230.721L205.768 231.513L208.014 236.725L209.851 235.934ZM205.358 225.508L203.112 220.295L201.275 221.087L203.522 226.3L205.358 225.508ZM200.866 215.083L199.742 212.476L197.906 213.268L199.029 215.874L200.866 215.083ZM198.824 211.872H195.88V213.872H198.824V211.872ZM189.992 211.872H184.104V213.872H189.992V211.872ZM178.216 211.872H172.328V213.872H178.216V211.872ZM166.44 211.872H160.552V213.872H166.44V211.872ZM154.664 211.872H148.776V213.872H154.664V211.872ZM142.888 211.872H137V213.872H142.888V211.872ZM131.112 211.872H125.224V213.872H131.112V211.872ZM119.336 211.872H113.448V213.872H119.336V211.872ZM107.56 211.872H101.672V213.872H107.56V211.872ZM95.784 211.872H92.84V213.872H95.784V211.872ZM91.9216 212.476L90.7984 215.083L92.6352 215.874L93.7584 213.268L91.9216 212.476ZM88.552 220.295L86.3056 225.508L88.1424 226.3L90.3888 221.087L88.552 220.295ZM84.0592 230.721L81.8128 235.934L83.6496 236.725L85.896 231.513L84.0592 230.721ZM79.5664 241.147L77.32 246.359L79.1568 247.151L81.4032 241.938L79.5664 241.147ZM75.0736 251.572L72.8272 256.785L74.664 257.577L76.9104 252.364L75.0736 251.572ZM70.5808 261.998L69.4576 264.604L71.2944 265.396L72.4176 262.789L70.5808 261.998ZM70.376 264H67.352V266H70.376V264ZM61.304 264H55.256V266H61.304V264ZM49.208 264H46.184V266H49.208V264ZM47.0994 265.403L48.3394 262.583L46.5086 261.777L45.2686 264.597L47.0994 265.403ZM50.8194 256.943L53.2994 251.303L51.4686 250.497L48.9886 256.137L50.8194 256.943ZM55.7794 245.663L58.2594 240.023L56.4286 239.217L53.9486 244.857L55.7794 245.663ZM60.7394 234.383L63.2194 228.743L61.3886 227.937L58.9086 233.577L60.7394 234.383ZM65.6994 223.103L68.1794 217.463L66.3486 216.657L63.8686 222.297L65.6994 223.103ZM70.6594 211.823L73.1394 206.183L71.3086 205.377L68.8286 211.017L70.6594 211.823ZM75.6194 200.543L78.0994 194.903L76.2686 194.097L73.7886 199.737L75.6194 200.543ZM80.5794 189.263L83.0594 183.623L81.2286 182.817L78.7486 188.457L80.5794 189.263ZM85.5394 177.983L88.0194 172.343L86.1886 171.537L83.7086 177.177L85.5394 177.983ZM90.4994 166.702L92.9794 161.063L91.1486 160.257L88.6686 165.897L90.4994 166.702ZM95.4594 155.422L97.9394 149.782L96.1086 148.977L93.6286 154.617L95.4594 155.422ZM100.419 144.142L102.899 138.503L101.069 137.697L98.5886 143.337L100.419 144.142ZM105.379 132.862L107.859 127.223L106.029 126.417L103.549 132.057L105.379 132.862ZM110.339 121.583L112.819 115.943L110.989 115.137L108.509 120.777L110.339 121.583ZM115.299 110.303L117.779 104.663L115.949 103.857L113.469 109.497L115.299 110.303ZM120.259 99.0225L122.739 93.3825L120.909 92.5775L118.429 98.2175L120.259 99.0225ZM125.219 87.7425L127.699 82.1025L125.869 81.2975L123.389 86.9375L125.219 87.7425ZM130.179 76.4626L132.659 70.8226L130.829 70.0175L128.349 75.6575L130.179 76.4626ZM135.139 65.1826L136.379 62.3625L134.549 61.5575L133.309 64.3775L135.139 65.1826ZM135.464 62.96H138.02V60.96H135.464V62.96ZM143.132 62.96H148.244V60.96H143.132V62.96ZM153.356 62.96H155.912V60.96H153.356V62.96ZM154.997 62.3625L156.237 65.1825L158.067 64.3775L156.827 61.5575L154.997 62.3625ZM158.717 70.8225L161.197 76.4625L163.027 75.6575L160.547 70.0175L158.717 70.8225ZM163.677 82.1025L166.157 87.7425L167.987 86.9375L165.507 81.2975L163.677 82.1025ZM168.637 93.3825L171.117 99.0225L172.947 98.2175L170.467 92.5775L168.637 93.3825ZM173.597 104.663L176.077 110.303L177.907 109.497L175.427 103.857L173.597 104.663ZM178.557 115.943L181.037 121.583L182.867 120.777L180.387 115.137L178.557 115.943ZM183.517 127.223L185.997 132.863L187.827 132.057L185.347 126.417L183.517 127.223ZM188.477 138.503L190.957 144.143L192.787 143.337L190.307 137.697L188.477 138.503ZM193.437 149.783L195.917 155.423L197.747 154.617L195.267 148.977L193.437 149.783ZM198.397 161.063L200.877 166.703L202.707 165.897L200.227 160.257L198.397 161.063ZM203.357 172.343L205.837 177.983L207.667 177.177L205.187 171.537L203.357 172.343ZM208.317 183.623L210.797 189.263L212.627 188.457L210.147 182.817L208.317 183.623ZM213.277 194.903L215.757 200.543L217.587 199.737L215.107 194.097L213.277 194.903ZM218.237 206.183L220.717 211.823L222.547 211.017L220.067 205.377L218.237 206.183ZM223.197 217.463L225.677 223.102L227.507 222.297L225.027 216.657L223.197 217.463ZM228.157 228.743L230.637 234.382L232.467 233.577L229.987 227.937L228.157 228.743ZM233.117 240.022L235.597 245.662L237.427 244.857L234.947 239.217L233.117 240.022ZM238.077 251.302L240.557 256.942L242.387 256.137L239.907 250.497L238.077 251.302ZM243.037 262.582L244.277 265.403L246.107 264.597L244.867 261.777L243.037 262.582ZM245.192 264H242.204V266H245.192V264ZM236.228 264H230.252V266H236.228V264ZM224.276 264H221.288V266H224.276V264ZM102.111 193.683L103.351 190.795L101.513 190.005L100.273 192.893L102.111 193.683ZM105.831 185.019L108.311 179.243L106.473 178.453L103.993 184.229L105.831 185.019ZM110.791 173.467L113.271 167.691L111.433 166.901L108.953 172.677L110.791 173.467ZM115.751 161.915L118.231 156.139L116.393 155.349L113.913 161.125L115.751 161.915ZM120.711 150.363L123.191 144.587L121.353 143.797L118.873 149.573L120.711 150.363ZM125.671 138.811L128.151 133.035L126.313 132.245L123.833 138.021L125.671 138.811ZM130.631 127.259L133.111 121.483L131.273 120.693L128.793 126.469L130.631 127.259ZM135.591 115.707L138.071 109.931L136.233 109.141L133.753 114.917L135.591 115.707ZM140.551 104.155L143.031 98.3785L141.193 97.5895L138.713 103.365L140.551 104.155ZM145.511 92.6025L146.751 89.7145L144.913 88.9255L143.673 91.8135L145.511 92.6025ZM144.913 89.7145L146.153 92.6025L147.991 91.8135L146.751 88.9255L144.913 89.7145ZM148.633 98.3785L151.113 104.155L152.951 103.365L150.471 97.5895L148.633 98.3785ZM153.593 109.931L156.073 115.707L157.911 114.917L155.431 109.141L153.593 109.931ZM158.553 121.483L161.033 127.259L162.871 126.469L160.391 120.693L158.553 121.483ZM163.513 133.035L165.993 138.811L167.831 138.021L165.351 132.245L163.513 133.035ZM168.473 144.587L170.953 150.363L172.791 149.573L170.311 143.797L168.473 144.587ZM173.433 156.139L175.913 161.915L177.751 161.125L175.271 155.349L173.433 156.139ZM178.393 167.691L180.873 173.467L182.711 172.677L180.231 166.901L178.393 167.691ZM183.353 179.243L185.833 185.019L187.671 184.229L185.191 178.453L183.353 179.243ZM188.313 190.795L189.553 193.683L191.391 192.893L190.151 190.005L188.313 190.795ZM190.472 192.288H187.283V194.288H190.472V192.288ZM180.906 192.288H174.529V194.288H180.906V192.288ZM168.152 192.288H161.775V194.288H168.152V192.288ZM155.398 192.288H149.021V194.288H155.398V192.288ZM142.643 192.288H136.266V194.288H142.643V192.288ZM129.889 192.288H123.512V194.288H129.889V192.288ZM117.135 192.288H110.758V194.288H117.135V192.288ZM104.381 192.288H101.192V194.288H104.381V192.288ZM221.288 265L219.451 265.792L219.972 267H221.288V265ZM198.824 212.872L200.661 212.08L200.14 210.872H198.824V212.872ZM92.84 212.872V210.872H91.5241L91.0033 212.08L92.84 212.872ZM70.376 265V267H71.6919L72.2127 265.792L70.376 265ZM46.184 265L44.3532 264.195L43.1198 267H46.184V265ZM135.464 61.96V59.96H134.159L133.633 61.1549L135.464 61.96ZM155.912 61.96L157.743 61.1549L157.217 59.96H155.912V61.96ZM245.192 265V267H248.256L247.023 264.195L245.192 265ZM101.192 193.288L99.3542 192.499L98.1567 195.288H101.192V193.288ZM190.472 193.288V195.288H193.507L192.31 192.499L190.472 193.288ZM145.832 89.32L147.67 88.5309L145.832 84.2507L143.994 88.5309L145.832 89.32ZM223.125 264.208L222.002 261.602L218.328 263.185L219.451 265.792L223.125 264.208ZM219.755 256.389L217.509 251.176L213.835 252.76L216.082 257.972L219.755 256.389ZM215.262 245.964L213.016 240.751L209.343 242.334L211.589 247.547L215.262 245.964ZM210.77 235.538L208.523 230.325L204.85 231.908L207.096 237.121L210.77 235.538ZM206.277 225.112L204.03 219.9L200.357 221.483L202.603 226.696L206.277 225.112ZM201.784 214.687L200.661 212.08L196.987 213.664L198.11 216.27L201.784 214.687ZM198.824 210.872H195.88V214.872H198.824V210.872ZM189.992 210.872H184.104V214.872H189.992V210.872ZM178.216 210.872H172.328V214.872H178.216V210.872ZM166.44 210.872H160.552V214.872H166.44V210.872ZM154.664 210.872H148.776V214.872H154.664V210.872ZM142.888 210.872H137V214.872H142.888V210.872ZM131.112 210.872H125.224V214.872H131.112V210.872ZM119.336 210.872H113.448V214.872H119.336V210.872ZM107.56 210.872H101.672V214.872H107.56V210.872ZM95.784 210.872H92.84V214.872H95.784V210.872ZM91.0033 212.08L89.8801 214.687L93.5535 216.27L94.6767 213.664L91.0033 212.08ZM87.6337 219.9L85.3873 225.112L89.0607 226.696L91.3071 221.483L87.6337 219.9ZM83.1409 230.325L80.8945 235.538L84.5679 237.121L86.8143 231.908L83.1409 230.325ZM78.6481 240.751L76.4017 245.964L80.0751 247.547L82.3215 242.334L78.6481 240.751ZM74.1553 251.176L71.9089 256.389L75.5823 257.972L77.8287 252.76L74.1553 251.176ZM69.6625 261.602L68.5393 264.208L72.2127 265.792L73.3359 263.185L69.6625 261.602ZM70.376 263H67.352V267H70.376V263ZM61.304 263H55.256V267H61.304V263ZM49.208 263H46.184V267H49.208V263ZM48.0148 265.805L49.2548 262.985L45.5932 261.375L44.3532 264.195L48.0148 265.805ZM51.7348 257.345L54.2148 251.705L50.5532 250.095L48.0732 255.735L51.7348 257.345ZM56.6948 246.065L59.1748 240.425L55.5132 238.815L53.0332 244.455L56.6948 246.065ZM61.6548 234.785L64.1348 229.145L60.4732 227.535L57.9932 233.175L61.6548 234.785ZM66.6148 223.505L69.0948 217.865L65.4332 216.255L62.9532 221.895L66.6148 223.505ZM71.5748 212.225L74.0548 206.585L70.3932 204.975L67.9132 210.615L71.5748 212.225ZM76.5348 200.945L79.0148 195.305L75.3532 193.695L72.8732 199.335L76.5348 200.945ZM81.4948 189.665L83.9748 184.025L80.3132 182.415L77.8332 188.055L81.4948 189.665ZM86.4548 178.385L88.9348 172.745L85.2732 171.135L82.7932 176.775L86.4548 178.385ZM91.4148 167.105L93.8948 161.465L90.2332 159.855L87.7532 165.495L91.4148 167.105ZM96.3748 155.825L98.8548 150.185L95.1932 148.575L92.7132 154.215L96.3748 155.825ZM101.335 144.545L103.815 138.905L100.153 137.295L97.6732 142.935L101.335 144.545ZM106.295 133.265L108.775 127.625L105.113 126.015L102.633 131.655L106.295 133.265ZM111.255 121.985L113.735 116.345L110.073 114.735L107.593 120.375L111.255 121.985ZM116.215 110.705L118.695 105.065L115.033 103.455L112.553 109.095L116.215 110.705ZM121.175 99.425L123.655 93.7851L119.993 92.175L117.513 97.815L121.175 99.425ZM126.135 88.1451L128.615 82.5051L124.953 80.895L122.473 86.535L126.135 88.1451ZM131.095 76.8651L133.575 71.2251L129.913 69.615L127.433 75.255L131.095 76.8651ZM136.055 65.5851L137.295 62.765L133.633 61.1549L132.393 63.975L136.055 65.5851ZM135.464 63.96H138.02V59.96H135.464V63.96ZM143.132 63.96H148.244V59.96H143.132V63.96ZM153.356 63.96H155.912V59.96H153.356V63.96ZM154.081 62.765L155.321 65.585L158.983 63.9749L157.743 61.1549L154.081 62.765ZM157.801 71.225L160.281 76.865L163.943 75.2549L161.463 69.6149L157.801 71.225ZM162.761 82.505L165.241 88.145L168.903 86.5349L166.423 80.8949L162.761 82.505ZM167.721 93.785L170.201 99.425L173.863 97.8149L171.383 92.1749L167.721 93.785ZM172.681 105.065L175.161 110.705L178.823 109.095L176.343 103.455L172.681 105.065ZM177.641 116.345L180.121 121.985L183.783 120.375L181.303 114.735L177.641 116.345ZM182.601 127.625L185.081 133.265L188.743 131.655L186.263 126.015L182.601 127.625ZM187.561 138.905L190.041 144.545L193.703 142.935L191.223 137.295L187.561 138.905ZM192.521 150.185L195.001 155.825L198.663 154.215L196.183 148.575L192.521 150.185ZM197.481 161.465L199.961 167.105L203.623 165.495L201.143 159.855L197.481 161.465ZM202.441 172.745L204.921 178.385L208.583 176.775L206.103 171.135L202.441 172.745ZM207.401 184.025L209.881 189.665L213.543 188.055L211.063 182.415L207.401 184.025ZM212.361 195.305L214.841 200.945L218.503 199.335L216.023 193.695L212.361 195.305ZM217.321 206.585L219.801 212.225L223.463 210.615L220.983 204.975L217.321 206.585ZM222.281 217.865L224.761 223.505L228.423 221.895L225.943 216.255L222.281 217.865ZM227.241 229.145L229.721 234.785L233.383 233.175L230.903 227.535L227.241 229.145ZM232.201 240.425L234.681 246.065L238.343 244.455L235.863 238.815L232.201 240.425ZM237.161 251.705L239.641 257.345L243.303 255.735L240.823 250.095L237.161 251.705ZM242.121 262.985L243.361 265.805L247.023 264.195L245.783 261.375L242.121 262.985ZM245.192 263H242.204V267H245.192V263ZM236.228 263H230.252V267H236.228V263ZM224.276 263H221.288V267H224.276V263ZM103.03 194.077L104.27 191.189L100.594 189.611L99.3542 192.499L103.03 194.077ZM106.75 185.413L109.23 179.637L105.554 178.059L103.074 183.835L106.75 185.413ZM111.71 173.861L114.19 168.085L110.514 166.507L108.034 172.283L111.71 173.861ZM116.67 162.309L119.15 156.533L115.474 154.955L112.994 160.731L116.67 162.309ZM121.63 150.757L124.11 144.981L120.434 143.403L117.954 149.179L121.63 150.757ZM126.59 139.205L129.07 133.429L125.394 131.851L122.914 137.627L126.59 139.205ZM131.55 127.653L134.03 121.877L130.354 120.299L127.874 126.075L131.55 127.653ZM136.51 116.101L138.99 110.325L135.314 108.747L132.834 114.523L136.51 116.101ZM141.47 104.549L143.95 98.7731L140.274 97.1949L137.794 102.971L141.47 104.549ZM146.43 92.9971L147.67 90.1091L143.994 88.5309L142.754 91.4189L146.43 92.9971ZM143.994 90.1091L145.234 92.9971L148.91 91.4189L147.67 88.5309L143.994 90.1091ZM147.714 98.7731L150.194 104.549L153.87 102.971L151.39 97.1949L147.714 98.7731ZM152.674 110.325L155.154 116.101L158.83 114.523L156.35 108.747L152.674 110.325ZM157.634 121.877L160.114 127.653L163.79 126.075L161.31 120.299L157.634 121.877ZM162.594 133.429L165.074 139.205L168.75 137.627L166.27 131.851L162.594 133.429ZM167.554 144.981L170.034 150.757L173.71 149.179L171.23 143.403L167.554 144.981ZM172.514 156.533L174.994 162.309L178.67 160.731L176.19 154.955L172.514 156.533ZM177.474 168.085L179.954 173.861L183.63 172.283L181.15 166.507L177.474 168.085ZM182.434 179.637L184.914 185.413L188.59 183.835L186.11 178.059L182.434 179.637ZM187.394 191.189L188.634 194.077L192.31 192.499L191.07 189.611L187.394 191.189ZM190.472 191.288H187.283V195.288H190.472V191.288ZM180.906 191.288H174.529V195.288H180.906V191.288ZM168.152 191.288H161.775V195.288H168.152V191.288ZM155.398 191.288H149.021V195.288H155.398V191.288ZM142.643 191.288H136.266V195.288H142.643V191.288ZM129.889 191.288H123.512V195.288H129.889V191.288ZM117.135 191.288H110.758V195.288H117.135V191.288ZM104.381 191.288H101.192V195.288H104.381V191.288ZM368.618 135.112L367.888 135.796L367.896 135.804L367.903 135.811L368.618 135.112ZM381.866 265V266H382.866V265H381.866ZM359.114 265H358.114V266H359.114V265ZM359.114 241.096H360.114L358.199 240.692L359.114 241.096ZM342.41 260.392L342.918 261.253L342.926 261.249L342.934 261.244L342.41 260.392ZM291.434 261.544L290.996 262.443L291.005 262.447L291.434 261.544ZM273.578 246.28L272.75 246.84L272.75 246.84L273.578 246.28ZM275.018 200.2L275.749 200.882L275.755 200.876L275.76 200.87L275.018 200.2ZM301.514 187.528L301.713 188.508L301.72 188.506L301.728 188.505L301.514 187.528ZM359.114 183.496V184.496H360.114V183.496H359.114ZM351.914 148.648L351.168 149.314L351.174 149.321L351.18 149.327L351.914 148.648ZM280.49 155.56L279.581 155.976L280.055 157.013L281.021 156.407L280.49 155.56ZM272.714 138.568L272.135 137.753L271.46 138.232L271.805 138.984L272.714 138.568ZM298.922 126.184L299.211 127.141L299.222 127.138L298.922 126.184ZM347.882 237.064L347.157 236.375L347.157 236.375L347.882 237.064ZM359.114 198.472H360.114V197.472H359.114V198.472ZM315.338 200.776L315.488 201.765L315.499 201.763L315.509 201.761L315.338 200.776ZM296.33 207.976L296.997 208.721L296.999 208.719L296.33 207.976ZM298.922 241.384L298.242 242.117L298.255 242.129L298.269 242.141L298.922 241.384ZM328.874 120.288C328.021 120.288 327.165 120.301 326.306 120.326L326.365 122.325C327.205 122.3 328.041 122.288 328.874 122.288V120.288ZM321.18 120.626C319.492 120.773 317.792 120.968 316.082 121.211L316.363 123.191C318.038 122.953 319.702 122.763 321.354 122.619L321.18 120.626ZM311.025 122.062C309.366 122.384 307.698 122.75 306.019 123.16L306.494 125.103C308.142 124.7 309.779 124.341 311.406 124.025L311.025 122.062ZM301.072 124.487C300.258 124.725 299.441 124.972 298.622 125.23L299.222 127.138C300.028 126.884 300.831 126.64 301.632 126.407L301.072 124.487ZM298.633 125.227C297.448 125.584 296.282 125.956 295.135 126.343L295.774 128.238C296.9 127.859 298.046 127.493 299.211 127.141L298.633 125.227ZM288.257 128.927C285.943 129.892 283.719 130.925 281.585 132.026L282.501 133.803C284.586 132.728 286.761 131.718 289.027 130.772L288.257 128.927ZM275.194 135.693C274.149 136.36 273.129 137.047 272.135 137.753L273.293 139.383C274.259 138.697 275.252 138.029 276.27 137.379L275.194 135.693ZM271.805 138.984L272.777 141.108L274.595 140.276L273.623 138.152L271.805 138.984ZM274.721 145.356L276.665 149.604L278.483 148.772L276.539 144.524L274.721 145.356ZM278.609 153.852L279.581 155.976L281.399 155.144L280.427 153.02L278.609 153.852ZM281.021 156.407C281.922 155.843 282.824 155.294 283.725 154.762L282.708 153.04C281.791 153.581 280.875 154.139 279.959 154.713L281.021 156.407ZM289.259 151.699C291.158 150.718 293.058 149.809 294.958 148.971L294.151 147.141C292.212 147.996 290.275 148.923 288.341 149.922L289.259 151.699ZM300.816 146.615C302.815 145.888 304.816 145.24 306.817 144.671L306.27 142.747C304.222 143.33 302.176 143.992 300.132 144.735L300.816 146.615ZM312.941 143.176C315.013 142.754 317.086 142.415 319.159 142.161L318.916 140.176C316.789 140.437 314.664 140.784 312.542 141.216L312.941 143.176ZM325.437 141.648C326.486 141.605 327.536 141.584 328.586 141.584V139.584C327.509 139.584 326.432 139.606 325.355 139.65L325.437 141.648ZM328.586 141.584C329.66 141.584 330.701 141.611 331.712 141.665L331.819 139.668C330.771 139.612 329.693 139.584 328.586 139.584V141.584ZM337.88 142.407C340.037 142.831 341.998 143.417 343.768 144.161L344.543 142.318C342.633 141.514 340.539 140.891 338.266 140.444L337.88 142.407ZM348.985 147.236C349.774 147.875 350.501 148.567 351.168 149.314L352.66 147.982C351.921 147.154 351.115 146.387 350.243 145.682L348.985 147.236ZM351.18 149.327C351.887 150.091 352.541 150.931 353.142 151.851L354.816 150.756C354.157 149.748 353.434 148.818 352.648 147.969L351.18 149.327ZM355.904 157.692C356.547 159.616 357.052 161.743 357.416 164.077L359.392 163.768C359.013 161.341 358.484 159.103 357.801 157.059L355.904 157.692ZM358.045 170.666C358.091 171.742 358.114 172.851 358.114 173.992H360.114C360.114 172.824 360.09 171.687 360.043 170.581L358.045 170.666ZM358.114 173.992V176.368H360.114V173.992H358.114ZM358.114 181.12V183.496H360.114V181.12H358.114ZM359.114 182.496H357.53V184.496H359.114V182.496ZM354.362 182.496H352.778V184.496H354.362V182.496ZM352.778 182.496C351.69 182.496 350.613 182.499 349.549 182.506L349.561 184.506C350.622 184.499 351.694 184.496 352.778 184.496V182.496ZM343.098 182.59C340.892 182.634 338.74 182.694 336.645 182.769L336.717 184.768C338.801 184.693 340.942 184.633 343.139 184.589L343.098 182.59ZM330.196 183.061C327.977 183.182 325.827 183.324 323.747 183.485L323.902 185.479C325.966 185.319 328.1 185.179 330.306 185.058L330.196 183.061ZM317.309 184.071C315.073 184.307 312.93 184.57 310.88 184.859L311.16 186.839C313.184 186.553 315.304 186.294 317.518 186.06L317.309 184.071ZM304.481 185.905C303.388 186.111 302.328 186.326 301.3 186.551L301.728 188.505C302.735 188.284 303.777 188.073 304.851 187.87L304.481 185.905ZM301.315 186.548C300.052 186.804 298.825 187.079 297.632 187.372L298.11 189.315C299.274 189.028 300.476 188.759 301.713 188.508L301.315 186.548ZM290.384 189.534C287.857 190.441 285.535 191.457 283.421 192.586L284.364 194.35C286.381 193.273 288.612 192.294 291.059 191.417L290.384 189.534ZM277.056 196.848C276.05 197.699 275.123 198.592 274.276 199.53L275.76 200.87C276.544 200.003 277.406 199.171 278.347 198.376L277.056 196.848ZM274.287 199.518C273.508 200.352 272.784 201.235 272.114 202.166L273.738 203.334C274.358 202.471 275.028 201.654 275.749 200.882L274.287 199.518ZM268.826 208.141C268 210.157 267.355 212.323 266.887 214.638L268.847 215.034C269.292 212.832 269.903 210.788 270.676 208.899L268.826 208.141ZM266.048 221.322C265.985 222.415 265.954 223.534 265.954 224.68H267.954C267.954 223.571 267.984 222.489 268.044 221.437L266.048 221.322ZM265.954 224.68C265.954 225.668 265.988 226.647 266.056 227.616L268.051 227.475C267.986 226.554 267.954 225.622 267.954 224.68H265.954ZM266.901 233.434C267.331 235.354 267.906 237.229 268.627 239.06L270.488 238.327C269.805 236.593 269.26 234.816 268.853 232.998L266.901 233.434ZM271.189 244.352C271.676 245.192 272.196 246.022 272.75 246.84L274.406 245.72C273.878 244.939 273.383 244.149 272.92 243.35L271.189 244.352ZM272.75 246.84C273.32 247.683 273.915 248.502 274.535 249.298L276.113 248.069C275.52 247.308 274.951 246.525 274.406 245.72L272.75 246.84ZM278.588 253.822C280.032 255.227 281.575 256.536 283.218 257.751L284.407 256.143C282.835 254.981 281.361 253.729 279.983 252.389L278.588 253.822ZM288.312 261.039C289.185 261.528 290.079 261.996 290.996 262.443L291.872 260.645C290.989 260.215 290.129 259.765 289.291 259.295L288.312 261.039ZM291.005 262.447C291.998 262.919 293.002 263.361 294.017 263.772L294.769 261.919C293.789 261.522 292.821 261.096 291.863 260.641L291.005 262.447ZM300.246 265.885C302.346 266.464 304.489 266.925 306.674 267.267L306.984 265.292C304.873 264.96 302.804 264.515 300.778 263.957L300.246 265.885ZM313.209 267.935C314.293 267.989 315.387 268.016 316.49 268.016V266.016C315.419 266.016 314.359 265.99 313.308 265.938L313.209 267.935ZM316.49 268.016C317.651 268.016 318.797 267.985 319.928 267.924L319.82 265.927C318.726 265.986 317.616 266.016 316.49 266.016V268.016ZM326.771 267.146C329.076 266.738 331.31 266.186 333.47 265.49L332.857 263.587C330.786 264.254 328.641 264.784 326.422 265.177L326.771 267.146ZM339.876 262.898C340.91 262.388 341.924 261.84 342.918 261.253L341.902 259.531C340.951 260.092 339.98 260.616 338.991 261.105L339.876 262.898ZM342.934 261.244C343.883 260.66 344.802 260.047 345.691 259.405L344.521 257.784C343.672 258.396 342.794 258.982 341.886 259.54L342.934 261.244ZM350.753 255.124C352.324 253.569 353.768 251.894 355.084 250.1L353.472 248.917C352.217 250.627 350.842 252.222 349.346 253.702L350.753 255.124ZM358.59 244.48C359.098 243.513 359.578 242.52 360.029 241.5L358.199 240.692C357.767 241.671 357.307 242.623 356.82 243.548L358.59 244.48ZM358.114 241.096V244.084H360.114V241.096H358.114ZM358.114 250.06V256.036H360.114V250.06H358.114ZM358.114 262.012V265H360.114V262.012H358.114ZM359.114 266H361.958V264H359.114V266ZM367.646 266H373.334V264H367.646V266ZM379.022 266H381.866V264H379.022V266ZM382.866 265V261.842H380.866V265H382.866ZM382.866 255.527V249.211H380.866V255.527H382.866ZM382.866 242.896V236.581H380.866V242.896H382.866ZM382.866 230.265V223.95H380.866V230.265H382.866ZM382.866 217.634V211.319H380.866V217.634H382.866ZM382.866 205.003V198.688H380.866V205.003H382.866ZM382.866 192.373V186.057H380.866V192.373H382.866ZM382.866 179.742V176.584H380.866V179.742H382.866ZM382.866 176.584C382.866 175.633 382.855 174.693 382.832 173.766L380.832 173.815C380.855 174.726 380.866 175.649 380.866 176.584H382.866ZM382.541 168.141C382.385 166.211 382.175 164.34 381.908 162.528L379.929 162.819C380.189 164.585 380.395 166.413 380.547 168.301L382.541 168.141ZM380.873 156.966C380.44 155.07 379.937 153.247 379.362 151.499L377.462 152.123C378.016 153.809 378.503 155.572 378.923 157.411L380.873 156.966ZM377.299 146.198C376.492 144.429 375.597 142.752 374.612 141.167L372.913 142.223C373.851 143.731 374.706 145.333 375.479 147.028L377.299 146.198ZM371.258 136.534C370.641 135.8 369.999 135.093 369.333 134.413L367.903 135.811C368.534 136.456 369.142 137.126 369.727 137.821L371.258 136.534ZM369.348 134.428C368.714 133.752 368.055 133.1 367.373 132.472L366.019 133.943C366.665 134.538 367.288 135.156 367.888 135.796L369.348 134.428ZM363.026 129.019C361.522 127.991 359.93 127.054 358.25 126.209L357.351 127.995C358.954 128.802 360.469 129.694 361.897 130.67L363.026 129.019ZM353.172 124.027C351.487 123.416 349.729 122.88 347.9 122.419L347.412 124.359C349.179 124.804 350.871 125.32 352.489 125.907L353.172 124.027ZM342.516 121.313C340.759 121.028 338.944 120.802 337.072 120.636L336.895 122.628C338.722 122.79 340.489 123.01 342.195 123.287L342.516 121.313ZM331.61 120.325C330.71 120.3 329.798 120.288 328.874 120.288V122.288C329.78 122.288 330.674 122.3 331.556 122.324L331.61 120.325ZM319.658 247.584C318.728 247.584 317.816 247.553 316.924 247.491L316.785 249.486C317.725 249.551 318.683 249.584 319.658 249.584V247.584ZM311.54 246.689C309.741 246.265 308.03 245.691 306.405 244.969L305.593 246.796C307.335 247.571 309.165 248.184 311.082 248.635L311.54 246.689ZM301.708 242.296C300.976 241.778 300.265 241.222 299.575 240.627L298.269 242.141C299.007 242.777 299.768 243.373 300.553 243.929L301.708 242.296ZM299.602 240.651C298.972 240.066 298.381 239.463 297.829 238.845L296.336 240.176C296.931 240.843 297.567 241.49 298.242 242.117L299.602 240.651ZM294.886 234.763C294.058 233.305 293.4 231.767 292.912 230.149L290.997 230.727C291.528 232.487 292.245 234.162 293.147 235.751L294.886 234.763ZM291.969 225.199C291.895 224.373 291.858 223.528 291.858 222.664H289.858C289.858 223.585 289.897 224.489 289.976 225.376L291.969 225.199ZM291.858 222.664C291.858 221.284 291.942 219.986 292.108 218.769L290.126 218.499C289.947 219.814 289.858 221.203 289.858 222.664H291.858ZM294.571 211.586C295.251 210.514 296.059 209.56 296.997 208.721L295.663 207.231C294.588 208.193 293.66 209.289 292.883 210.515L294.571 211.586ZM296.999 208.719C297.575 208.201 298.215 207.704 298.92 207.23L297.804 205.57C297.027 206.093 296.312 206.647 295.661 207.233L296.999 208.719ZM303.293 204.926C304.725 204.329 306.309 203.791 308.047 203.312L307.515 201.384C305.708 201.882 304.044 202.446 302.524 203.079L303.293 204.926ZM312.982 202.187C313.793 202.036 314.628 201.896 315.488 201.765L315.188 199.787C314.307 199.921 313.449 200.066 312.616 200.221L312.982 202.187ZM315.509 201.761C316.506 201.588 317.556 201.424 318.66 201.27L318.384 199.289C317.26 199.446 316.187 199.613 315.167 199.791L315.509 201.761ZM325.023 200.545C327.029 200.36 329.162 200.198 331.423 200.061L331.302 198.065C329.023 198.203 326.868 198.366 324.84 198.553L325.023 200.545ZM337.844 199.748C339.9 199.671 342.043 199.609 344.272 199.564L344.232 197.565C341.992 197.61 339.837 197.672 337.769 197.75L337.844 199.748ZM350.71 199.482C351.767 199.475 352.84 199.472 353.93 199.472V197.472C352.836 197.472 351.759 197.475 350.698 197.482L350.71 199.482ZM353.93 199.472H355.226V197.472H353.93V199.472ZM357.818 199.472H359.114V197.472H357.818V199.472ZM358.114 198.472V200.56H360.114V198.472H358.114ZM358.114 204.736V206.824H360.114V204.736H358.114ZM358.114 206.824C358.114 207.741 358.093 208.644 358.051 209.535L360.048 209.63C360.092 208.707 360.114 207.771 360.114 206.824H358.114ZM357.514 214.914C357.232 216.731 356.851 218.486 356.371 220.181L358.295 220.726C358.798 218.95 359.196 217.115 359.49 215.221L357.514 214.914ZM354.565 225.245C353.846 226.897 353.018 228.483 352.08 230.004L353.782 231.054C354.77 229.451 355.642 227.781 356.399 226.044L354.565 225.245ZM348.945 234.365C348.376 235.05 347.78 235.72 347.157 236.375L348.607 237.753C349.26 237.066 349.886 236.363 350.484 235.642L348.945 234.365ZM347.157 236.375C346.565 236.998 345.96 237.594 345.341 238.165L346.696 239.636C347.348 239.035 347.985 238.407 348.607 237.753L347.157 236.375ZM341.367 241.336C339.964 242.297 338.501 243.147 336.976 243.886L337.849 245.686C339.463 244.903 341.013 244.003 342.498 242.985L341.367 241.336ZM332.253 245.76C330.662 246.262 329.011 246.66 327.302 246.955L327.642 248.926C329.437 248.616 331.174 248.197 332.854 247.668L332.253 245.76ZM322.222 247.517C321.38 247.562 320.526 247.584 319.658 247.584V249.584C320.56 249.584 321.449 249.561 322.327 249.515L322.222 247.517ZM368.618 135.112L367.159 136.48L367.174 136.496L367.189 136.511L368.618 135.112ZM381.866 265V267H383.866V265H381.866ZM359.114 265H357.114V267H359.114V265ZM359.114 241.096H361.114L357.285 240.288L359.114 241.096ZM342.41 260.392L343.426 262.115L343.442 262.105L343.458 262.095L342.41 260.392ZM291.434 261.544L290.558 263.342L290.567 263.346L290.576 263.351L291.434 261.544ZM273.578 246.28L271.921 247.401L271.921 247.401L273.578 246.28ZM275.018 200.2L276.48 201.565L276.491 201.553L276.502 201.541L275.018 200.2ZM301.514 187.528L301.912 189.488L301.927 189.485L301.941 189.482L301.514 187.528ZM359.114 183.496V185.496H361.114V183.496H359.114ZM351.914 148.648L350.422 149.98L350.434 149.994L350.446 150.007L351.914 148.648ZM280.49 155.56L278.671 156.392L279.62 158.465L281.552 157.255L280.49 155.56ZM272.714 138.568L271.556 136.938L270.207 137.896L270.895 139.4L272.714 138.568ZM298.922 126.184L299.5 128.099L299.511 128.095L299.523 128.092L298.922 126.184ZM347.882 237.064L346.433 235.686L346.432 235.687L347.882 237.064ZM359.114 198.472H361.114V196.472H359.114V198.472ZM315.338 200.776L315.639 202.753L315.66 202.75L315.681 202.746L315.338 200.776ZM296.33 207.976L297.664 209.466L297.668 209.463L296.33 207.976ZM298.922 241.384L297.561 242.85L297.588 242.875L297.616 242.899L298.922 241.384ZM328.874 119.288C328.011 119.288 327.145 119.301 326.276 119.327L326.395 123.325C327.224 123.3 328.051 123.288 328.874 123.288V119.288ZM321.094 119.63C319.387 119.779 317.669 119.976 315.942 120.221L316.504 124.181C318.161 123.946 319.807 123.757 321.441 123.615L321.094 119.63ZM310.834 121.08C309.159 121.406 307.475 121.775 305.782 122.189L306.731 126.074C308.364 125.676 309.986 125.32 311.597 125.007L310.834 121.08ZM300.792 123.527C299.971 123.767 299.147 124.016 298.321 124.276L299.523 128.092C300.322 127.84 301.118 127.598 301.912 127.367L300.792 123.527ZM298.344 124.269C297.149 124.63 295.973 125.005 294.816 125.395L296.093 129.186C297.209 128.81 298.345 128.447 299.5 128.099L298.344 124.269ZM287.872 128.004C285.535 128.979 283.286 130.023 281.126 131.137L282.959 134.692C285.019 133.63 287.17 132.631 289.413 131.695L287.872 128.004ZM274.657 134.85C273.597 135.526 272.563 136.222 271.556 136.938L273.872 140.198C274.825 139.522 275.803 138.863 276.808 138.222L274.657 134.85ZM270.895 139.4L271.867 141.524L275.505 139.86L274.533 137.736L270.895 139.4ZM273.811 145.772L275.755 150.02L279.393 148.356L277.449 144.108L273.811 145.772ZM277.699 154.268L278.671 156.392L282.309 154.728L281.337 152.604L277.699 154.268ZM281.552 157.255C282.446 156.695 283.34 156.151 284.233 155.623L282.2 152.179C281.275 152.725 280.351 153.287 279.428 153.865L281.552 157.255ZM289.718 152.588C291.599 151.616 293.481 150.715 295.362 149.886L293.748 146.226C291.789 147.089 289.834 148.025 287.882 149.034L289.718 152.588ZM301.157 147.555C303.135 146.836 305.113 146.195 307.091 145.633L305.997 141.785C303.925 142.374 301.856 143.044 299.791 143.795L301.157 147.555ZM313.141 144.156C315.187 143.739 317.234 143.405 319.281 143.154L318.794 139.183C316.641 139.447 314.49 139.799 312.342 140.237L313.141 144.156ZM325.478 142.647C326.513 142.605 327.55 142.584 328.586 142.584V138.584C327.495 138.584 326.405 138.606 325.314 138.651L325.478 142.647ZM328.586 142.584C329.643 142.584 330.667 142.611 331.658 142.664L331.873 138.67C330.806 138.612 329.71 138.584 328.586 138.584V142.584ZM337.687 143.388C339.786 143.8 341.681 144.368 343.38 145.083L344.931 141.396C342.95 140.563 340.79 139.921 338.459 139.463L337.687 143.388ZM348.356 148.014C349.103 148.619 349.792 149.274 350.422 149.98L353.406 147.316C352.63 146.447 351.785 145.643 350.872 144.904L348.356 148.014ZM350.446 150.007C351.113 150.727 351.733 151.523 352.305 152.398L355.653 150.209C354.965 149.156 354.208 148.181 353.382 147.289L350.446 150.007ZM354.955 158.009C355.578 159.873 356.071 161.945 356.428 164.231L360.38 163.614C359.994 161.139 359.452 158.847 358.749 156.742L354.955 158.009ZM357.046 170.709C357.091 171.77 357.114 172.864 357.114 173.992H361.114C361.114 172.811 361.09 171.659 361.042 170.538L357.046 170.709ZM357.114 173.992V176.368H361.114V173.992H357.114ZM357.114 181.12V183.496H361.114V181.12H357.114ZM359.114 181.496H357.53V185.496H359.114V181.496ZM354.362 181.496H352.778V185.496H354.362V181.496ZM352.778 181.496C351.688 181.496 350.609 181.499 349.543 181.506L349.568 185.506C350.626 185.499 351.696 185.496 352.778 185.496V181.496ZM343.078 181.59C340.867 181.634 338.71 181.694 336.609 181.77L336.753 185.767C338.832 185.692 340.967 185.633 343.159 185.589L343.078 181.59ZM330.141 182.062C327.915 182.184 325.758 182.326 323.67 182.488L323.979 186.476C326.035 186.317 328.162 186.177 330.36 186.056L330.141 182.062ZM317.204 183.077C314.957 183.314 312.803 183.578 310.74 183.869L311.299 187.829C313.311 187.545 315.419 187.287 317.623 187.055L317.204 183.077ZM304.296 184.922C303.194 185.13 302.124 185.347 301.087 185.574L301.941 189.482C302.939 189.264 303.971 189.054 305.036 188.853L304.296 184.922ZM301.116 185.568C299.841 185.827 298.6 186.105 297.394 186.401L298.348 190.286C299.499 190.003 300.687 189.737 301.912 189.488L301.116 185.568ZM290.047 188.593C287.479 189.514 285.112 190.55 282.95 191.704L284.835 195.233C286.804 194.181 288.99 193.221 291.397 192.358L290.047 188.593ZM276.411 196.084C275.372 196.962 274.412 197.887 273.534 198.859L276.502 201.541C277.254 200.708 278.084 199.907 278.993 199.139L276.411 196.084ZM273.556 198.835C272.748 199.701 271.997 200.616 271.302 201.582L274.549 203.918C275.145 203.09 275.789 202.306 276.48 201.565L273.556 198.835ZM267.9 207.762C267.049 209.841 266.386 212.069 265.907 214.439L269.827 215.232C270.261 213.086 270.854 211.103 271.602 209.278L267.9 207.762ZM265.049 221.265C264.986 222.378 264.954 223.516 264.954 224.68H268.954C268.954 223.589 268.984 222.527 269.043 221.494L265.049 221.265ZM264.954 224.68C264.954 225.691 264.989 226.693 265.059 227.686L269.049 227.405C268.986 226.508 268.954 225.599 268.954 224.68H264.954ZM265.926 233.653C266.366 235.623 266.957 237.548 267.697 239.427L271.419 237.961C270.754 236.274 270.225 234.547 269.829 232.779L265.926 233.653ZM270.324 244.853C270.822 245.714 271.355 246.563 271.921 247.401L275.235 245.159C274.719 244.398 274.236 243.627 273.785 242.849L270.324 244.853ZM271.921 247.401C272.504 248.261 273.112 249.099 273.746 249.913L276.901 247.454C276.323 246.711 275.767 245.947 275.235 245.159L271.921 247.401ZM277.891 254.539C279.367 255.975 280.945 257.314 282.623 258.555L285.002 255.339C283.466 254.203 282.025 252.981 280.68 251.672L277.891 254.539ZM287.823 261.911C288.713 262.41 289.624 262.887 290.558 263.342L292.31 259.746C291.444 259.324 290.601 258.883 289.78 258.423L287.823 261.911ZM290.576 263.351C291.586 263.83 292.608 264.28 293.641 264.699L295.144 260.992C294.183 260.602 293.233 260.184 292.292 259.737L290.576 263.351ZM299.981 266.849C302.118 267.438 304.298 267.907 306.519 268.255L307.139 264.304C305.064 263.978 303.032 263.541 301.043 262.993L299.981 266.849ZM313.159 268.934C314.26 268.989 315.371 269.016 316.49 269.016V265.016C315.436 265.016 314.391 264.99 313.357 264.939L313.159 268.934ZM316.49 269.016C317.669 269.016 318.833 268.985 319.982 268.923L319.766 264.929C318.69 264.987 317.599 265.016 316.49 265.016V269.016ZM326.945 268.131C329.294 267.715 331.571 267.152 333.777 266.442L332.55 262.635C330.524 263.287 328.424 263.807 326.248 264.192L326.945 268.131ZM340.318 263.795C341.374 263.274 342.41 262.714 343.426 262.115L341.394 258.669C340.464 259.218 339.515 259.731 338.548 260.208L340.318 263.795ZM343.458 262.095C344.427 261.499 345.367 260.873 346.276 260.216L343.936 256.973C343.107 257.571 342.249 258.143 341.362 258.689L343.458 262.095ZM351.457 255.834C353.065 254.243 354.543 252.528 355.89 250.692L352.665 248.325C351.441 249.994 350.101 251.549 348.643 252.991L351.457 255.834ZM359.475 244.946C359.994 243.958 360.484 242.945 360.943 241.904L357.285 240.288C356.861 241.246 356.411 242.178 355.935 243.083L359.475 244.946ZM357.114 241.096V244.084H361.114V241.096H357.114ZM357.114 250.06V256.036H361.114V250.06H357.114ZM357.114 262.012V265H361.114V262.012H357.114ZM359.114 267H361.958V263H359.114V267ZM367.646 267H373.334V263H367.646V267ZM379.022 267H381.866V263H379.022V267ZM383.866 265V261.842H379.866V265H383.866ZM383.866 255.527V249.211H379.866V255.527H383.866ZM383.866 242.896V236.581H379.866V242.896H383.866ZM383.866 230.265V223.95H379.866V230.265H383.866ZM383.866 217.634V211.319H379.866V217.634H383.866ZM383.866 205.003V198.688H379.866V205.003H383.866ZM383.866 192.373V186.057H379.866V192.373H383.866ZM383.866 179.742V176.584H379.866V179.742H383.866ZM383.866 176.584C383.866 175.625 383.854 174.677 383.831 173.741L379.833 173.84C379.855 174.742 379.866 175.657 379.866 176.584H383.866ZM383.537 168.061C383.381 166.111 383.167 164.218 382.897 162.382L378.94 162.964C379.196 164.708 379.4 166.514 379.55 168.381L383.537 168.061ZM381.848 156.744C381.409 154.819 380.897 152.966 380.313 151.187L376.512 152.436C377.056 154.09 377.535 155.823 377.948 157.633L381.848 156.744ZM378.209 145.783C377.385 143.977 376.469 142.262 375.461 140.639L372.064 142.751C372.978 144.221 373.813 145.785 374.569 147.443L378.209 145.783ZM372.023 135.89C371.39 135.138 370.731 134.412 370.047 133.713L367.189 136.511C367.802 137.137 368.393 137.789 368.962 138.465L372.023 135.89ZM370.077 133.744C369.426 133.05 368.751 132.381 368.05 131.736L365.342 134.679C365.97 135.257 366.575 135.857 367.159 136.48L370.077 133.744ZM363.59 128.193C362.048 127.139 360.418 126.18 358.699 125.316L356.901 128.889C358.466 129.676 359.943 130.545 361.333 131.495L363.59 128.193ZM353.513 123.087C351.794 122.464 350.004 121.918 348.144 121.449L347.167 125.328C348.904 125.766 350.564 126.272 352.148 126.847L353.513 123.087ZM342.676 120.326C340.894 120.037 339.055 119.808 337.16 119.64L336.807 123.624C338.611 123.784 340.353 124.001 342.035 124.274L342.676 120.326ZM331.637 119.325C330.728 119.3 329.807 119.288 328.874 119.288V123.288C329.771 123.288 330.656 123.3 331.529 123.324L331.637 119.325ZM319.658 246.584C318.75 246.584 317.862 246.554 316.993 246.493L316.715 250.483C317.68 250.551 318.661 250.584 319.658 250.584V246.584ZM311.769 245.715C310.029 245.305 308.377 244.751 306.812 244.055L305.186 247.71C306.988 248.511 308.877 249.144 310.853 249.609L311.769 245.715ZM302.286 241.48C301.58 240.98 300.894 240.444 300.228 239.869L297.616 242.899C298.378 243.555 299.164 244.171 299.975 244.745L302.286 241.48ZM300.283 239.918C299.675 239.353 299.105 238.774 298.575 238.179L295.59 240.842C296.207 241.533 296.864 242.202 297.561 242.85L300.283 239.918ZM295.756 234.27C294.965 232.876 294.336 231.407 293.869 229.86L290.04 231.016C290.592 232.847 291.338 234.59 292.278 236.245L295.756 234.27ZM292.965 225.11C292.894 224.314 292.858 223.499 292.858 222.664H288.858C288.858 223.613 288.899 224.547 288.98 225.465L292.965 225.11ZM292.858 222.664C292.858 221.324 292.94 220.072 293.099 218.904L289.136 218.364C288.949 219.729 288.858 221.163 288.858 222.664H292.858ZM295.416 212.122C296.047 211.127 296.795 210.243 297.664 209.466L294.996 206.486C293.852 207.51 292.865 208.676 292.038 209.979L295.416 212.122ZM297.668 209.463C298.206 208.978 298.809 208.51 299.478 208.06L297.246 204.74C296.433 205.287 295.681 205.869 294.992 206.489L297.668 209.463ZM303.677 205.849C305.065 205.271 306.609 204.745 308.313 204.276L307.25 200.42C305.408 200.927 303.703 201.505 302.14 202.156L303.677 205.849ZM313.165 203.17C313.964 203.022 314.789 202.883 315.639 202.753L315.037 198.799C314.146 198.934 313.278 199.081 312.433 199.238L313.165 203.17ZM315.681 202.746C316.665 202.575 317.704 202.413 318.798 202.261L318.246 198.299C317.112 198.457 316.028 198.626 314.995 198.806L315.681 202.746ZM325.115 201.54C327.109 201.356 329.232 201.196 331.484 201.059L331.242 197.067C328.953 197.206 326.788 197.369 324.748 197.557L325.115 201.54ZM337.882 200.748C339.932 200.67 342.068 200.609 344.292 200.564L344.212 196.565C341.966 196.61 339.806 196.672 337.731 196.751L337.882 200.748ZM350.716 200.482C351.77 200.475 352.842 200.472 353.93 200.472V196.472C352.834 196.472 351.755 196.475 350.692 196.482L350.716 200.482ZM353.93 200.472H355.226V196.472H353.93V200.472ZM357.818 200.472H359.114V196.472H357.818V200.472ZM357.114 198.472V200.56H361.114V198.472H357.114ZM357.114 204.736V206.824H361.114V204.736H357.114ZM357.114 206.824C357.114 207.725 357.093 208.613 357.052 209.487L361.047 209.677C361.092 208.738 361.114 207.787 361.114 206.824H357.114ZM356.526 214.761C356.25 216.539 355.877 218.255 355.409 219.909L359.257 220.998C359.772 219.182 360.178 217.307 360.478 215.374L356.526 214.761ZM353.649 224.846C352.948 226.454 352.141 227.998 351.228 229.479L354.633 231.578C355.646 229.936 356.54 228.223 357.316 226.443L353.649 224.846ZM348.176 233.726C347.621 234.394 347.04 235.047 346.433 235.686L349.331 238.442C350 237.74 350.641 237.019 351.253 236.281L348.176 233.726ZM346.432 235.687C345.855 236.293 345.266 236.874 344.663 237.429L347.373 240.371C348.042 239.755 348.695 239.112 349.332 238.441L346.432 235.687ZM340.801 240.511C339.44 241.444 338.019 242.269 336.54 242.987L338.285 246.586C339.944 245.781 341.537 244.856 343.063 243.81L340.801 240.511ZM331.952 244.807C330.405 245.294 328.799 245.682 327.132 245.97L327.811 249.912C329.649 249.595 331.43 249.165 333.154 248.622L331.952 244.807ZM322.169 246.519C321.345 246.562 320.508 246.584 319.658 246.584V250.584C320.577 250.584 321.484 250.56 322.38 250.513L322.169 246.519Z" fill="#0059B5"/>
<path d="M466.76 80L465.056 76.04H456.824L455.12 80H452L459.656 63.08H462.176L469.832 80H466.76ZM457.832 73.64H464.024L460.928 66.44L457.832 73.64ZM482.053 71.264C483.029 71.536 483.781 72.032 484.309 72.752C484.853 73.472 485.125 74.352 485.125 75.392C485.125 76.832 484.605 77.96 483.565 78.776C482.541 79.592 481.125 80 479.317 80H471.637V63.08H479.077C480.837 63.08 482.213 63.472 483.205 64.256C484.213 65.024 484.717 66.104 484.717 67.496C484.717 68.392 484.477 69.168 483.997 69.824C483.533 70.48 482.885 70.96 482.053 71.264ZM474.661 70.208H478.573C480.701 70.208 481.765 69.416 481.765 67.832C481.765 67.032 481.501 66.44 480.973 66.056C480.445 65.672 479.645 65.48 478.573 65.48H474.661V70.208ZM478.981 77.6C480.101 77.6 480.917 77.4 481.429 77C481.941 76.6 482.197 75.976 482.197 75.128C482.197 74.28 481.933 73.648 481.405 73.232C480.893 72.816 480.085 72.608 478.981 72.608H474.661V77.6H478.981ZM495.699 80.216C494.035 80.216 492.579 79.864 491.331 79.16C490.099 78.44 489.147 77.424 488.475 76.112C487.819 74.8 487.491 73.272 487.491 71.528C487.491 69.784 487.819 68.264 488.475 66.968C489.147 65.656 490.099 64.648 491.331 63.944C492.579 63.224 494.035 62.864 495.699 62.864C496.835 62.864 497.907 63.04 498.915 63.392C499.923 63.744 500.771 64.24 501.459 64.88L500.427 67.136C499.659 66.528 498.899 66.088 498.147 65.816C497.395 65.528 496.595 65.384 495.747 65.384C494.115 65.384 492.851 65.912 491.955 66.968C491.075 68.024 490.635 69.544 490.635 71.528C490.635 73.528 491.075 75.056 491.955 76.112C492.851 77.168 494.115 77.696 495.747 77.696C496.595 77.696 497.395 77.56 498.147 77.288C498.899 77 499.659 76.552 500.427 75.944L501.459 78.2C500.771 78.84 499.923 79.336 498.915 79.688C497.907 80.04 496.835 80.216 495.699 80.216ZM504.285 63.08H510.525C513.293 63.08 515.437 63.824 516.957 65.312C518.493 66.784 519.261 68.856 519.261 71.528C519.261 74.2 518.493 76.28 516.957 77.768C515.437 79.256 513.293 80 510.525 80H504.285V63.08ZM510.333 77.48C514.221 77.48 516.165 75.496 516.165 71.528C516.165 67.576 514.221 65.6 510.333 65.6H507.381V77.48H510.333ZM522.379 80V63.08H533.707V65.528H525.403V70.184H533.227V72.608H525.403V77.552H533.707V80H522.379ZM536.512 80V63.08H547.6V65.552H539.56V70.16H547.12V72.632H539.56V80H536.512ZM563.983 70.856V78.968C563.215 79.352 562.279 79.656 561.175 79.88C560.087 80.104 558.975 80.216 557.839 80.216C556.095 80.216 554.583 79.872 553.303 79.184C552.023 78.48 551.039 77.48 550.351 76.184C549.679 74.872 549.343 73.32 549.343 71.528C549.343 69.752 549.679 68.216 550.351 66.92C551.039 65.608 552.007 64.608 553.255 63.92C554.519 63.216 555.999 62.864 557.695 62.864C558.879 62.864 559.991 63.04 561.031 63.392C562.071 63.728 562.935 64.216 563.623 64.856L562.591 67.088C561.807 66.48 561.031 66.048 560.263 65.792C559.511 65.52 558.679 65.384 557.767 65.384C556.023 65.384 554.703 65.904 553.807 66.944C552.927 67.968 552.487 69.496 552.487 71.528C552.487 75.688 554.311 77.768 557.959 77.768C559.047 77.768 560.135 77.616 561.223 77.312V73.064H557.575V70.856H563.983ZM579.184 63.08H582.208V80H579.184V72.656H570.52V80H567.472V63.08H570.52V70.16H579.184V63.08ZM585.847 80V63.08H588.943V80H585.847ZM590.629 77.72L592.309 77.6C593.733 77.504 594.445 76.72 594.445 75.248V63.08H597.541V75.224C597.541 76.728 597.141 77.896 596.341 78.728C595.557 79.544 594.381 80 592.813 80.096L590.845 80.216L590.629 77.72ZM615.911 80H612.143L604.295 72.128V80H601.199V63.08H604.295V70.64L611.831 63.08H615.527L607.343 71.216L615.911 80ZM617.043 80V63.08H620.139V77.456H628.035V80H617.043ZM644.443 63.08H646.867V80H644.131V68.816L639.667 77.264H637.603L633.115 68.936L633.139 80H630.403V63.08H632.851L638.659 74.144L644.443 63.08ZM661.911 63.08H664.815V80H662.487L653.415 68.192V80H650.535V63.08H652.839L661.911 74.864V63.08ZM461.36 113.216C459.712 113.216 458.28 112.864 457.064 112.16C455.864 111.456 454.936 110.448 454.28 109.136C453.624 107.824 453.296 106.288 453.296 104.528C453.296 102.768 453.616 101.24 454.256 99.944C454.912 98.632 455.848 97.624 457.064 96.92C458.28 96.216 459.712 95.864 461.36 95.864C463.008 95.864 464.432 96.216 465.632 96.92C466.848 97.624 467.776 98.632 468.416 99.944C469.072 101.24 469.4 102.768 469.4 104.528C469.4 106.288 469.072 107.824 468.416 109.136C467.76 110.448 466.824 111.456 465.608 112.16C464.408 112.864 462.992 113.216 461.36 113.216ZM461.36 110.744C462.912 110.744 464.12 110.208 464.984 109.136C465.864 108.064 466.304 106.528 466.304 104.528C466.304 102.528 465.864 101 464.984 99.944C464.12 98.872 462.912 98.336 461.36 98.336C459.792 98.336 458.568 98.872 457.688 99.944C456.824 101 456.392 102.528 456.392 104.528C456.392 106.528 456.824 108.064 457.688 109.136C458.568 110.208 459.792 110.744 461.36 110.744ZM472.527 96.08H479.919C481.727 96.08 483.135 96.536 484.143 97.448C485.151 98.344 485.655 99.608 485.655 101.24C485.655 102.872 485.151 104.144 484.143 105.056C483.135 105.968 481.727 106.424 479.919 106.424H475.623V113H472.527V96.08ZM479.535 104.048C481.663 104.048 482.727 103.12 482.727 101.264C482.727 100.32 482.463 99.624 481.935 99.176C481.407 98.712 480.607 98.48 479.535 98.48H475.623V104.048H479.535ZM499.461 112.448C499.845 112.56 500.181 112.744 500.469 113C500.757 113.24 501.037 113.584 501.309 114.032L503.037 116.84L500.445 118.088L498.117 114.32C497.669 113.584 496.909 113.216 495.837 113.216C494.189 113.216 492.757 112.864 491.541 112.16C490.341 111.456 489.413 110.448 488.757 109.136C488.101 107.824 487.773 106.288 487.773 104.528C487.773 102.768 488.101 101.24 488.757 99.944C489.413 98.632 490.341 97.624 491.541 96.92C492.757 96.216 494.189 95.864 495.837 95.864C497.469 95.864 498.885 96.216 500.085 96.92C501.301 97.624 502.237 98.632 502.893 99.944C503.549 101.24 503.877 102.768 503.877 104.528C503.877 106.448 503.493 108.096 502.725 109.472C501.973 110.832 500.885 111.824 499.461 112.448ZM495.837 110.744C497.389 110.744 498.597 110.208 499.461 109.136C500.341 108.064 500.781 106.528 500.781 104.528C500.781 102.528 500.341 101 499.461 99.944C498.597 98.872 497.389 98.336 495.837 98.336C494.269 98.336 493.045 98.872 492.165 99.944C491.301 101 490.869 102.528 490.869 104.528C490.869 106.528 491.301 108.064 492.165 109.136C493.045 110.208 494.269 110.744 495.837 110.744ZM521.188 113H517.828L514.924 107.6C514.652 107.088 514.316 106.728 513.916 106.52C513.516 106.312 513.012 106.208 512.404 106.208H510.052V113H507.004V96.08H514.492C516.412 96.08 517.868 96.512 518.86 97.376C519.868 98.224 520.372 99.456 520.372 101.072C520.372 102.368 520.004 103.44 519.268 104.288C518.548 105.12 517.524 105.664 516.196 105.92C517.092 106.16 517.812 106.792 518.356 107.816L521.188 113ZM514.06 103.832C515.228 103.832 516.084 103.616 516.628 103.184C517.172 102.736 517.444 102.056 517.444 101.144C517.444 100.216 517.172 99.544 516.628 99.128C516.084 98.696 515.228 98.48 514.06 98.48H510.028V103.832H514.06ZM529.357 113.216C528.061 113.216 526.845 113.04 525.709 112.688C524.573 112.336 523.613 111.84 522.829 111.2L523.861 108.944C524.677 109.568 525.533 110.024 526.429 110.312C527.341 110.6 528.325 110.744 529.381 110.744C530.549 110.744 531.445 110.544 532.069 110.144C532.709 109.728 533.029 109.152 533.029 108.416C533.029 107.776 532.733 107.288 532.141 106.952C531.565 106.616 530.597 106.296 529.237 105.992C527.829 105.688 526.685 105.336 525.805 104.936C524.925 104.536 524.261 104.024 523.813 103.4C523.365 102.776 523.141 101.984 523.141 101.024C523.141 100.032 523.413 99.144 523.957 98.36C524.501 97.576 525.269 96.968 526.261 96.536C527.253 96.088 528.397 95.864 529.693 95.864C530.877 95.864 532.005 96.048 533.077 96.416C534.149 96.768 535.029 97.256 535.717 97.88L534.685 100.136C533.181 98.936 531.517 98.336 529.693 98.336C528.605 98.336 527.741 98.56 527.101 99.008C526.477 99.44 526.165 100.048 526.165 100.832C526.165 101.488 526.445 101.992 527.005 102.344C527.565 102.696 528.517 103.024 529.861 103.328C531.285 103.648 532.437 104.008 533.317 104.408C534.213 104.792 534.893 105.288 535.357 105.896C535.837 106.504 536.077 107.272 536.077 108.2C536.077 109.208 535.805 110.096 535.261 110.864C534.733 111.616 533.957 112.2 532.933 112.616C531.925 113.016 530.733 113.216 529.357 113.216ZM542.558 113V98.624H537.038V96.08H551.174V98.624H545.654V113H542.558ZM560.277 113.216C557.957 113.216 556.197 112.616 554.997 111.416C553.797 110.216 553.197 108.464 553.197 106.16V96.08H556.221V106.328C556.221 107.784 556.565 108.888 557.253 109.64C557.941 110.376 558.949 110.744 560.277 110.744C561.589 110.744 562.589 110.368 563.277 109.616C563.965 108.864 564.309 107.768 564.309 106.328V96.08H567.333V106.16C567.333 108.448 566.733 110.2 565.533 111.416C564.333 112.616 562.581 113.216 560.277 113.216ZM583.302 96.08H586.446L578.91 113H576.39L568.854 96.08H572.046L577.662 109.16L583.302 96.08ZM609.315 96.08H612.267L606.291 113H603.771L599.523 100.832L595.251 113H592.731L586.779 96.08H589.899L594.099 108.68L598.515 96.08H600.699L604.995 108.752L609.315 96.08ZM622.454 104.408L628.886 113H625.286L620.702 106.664L616.094 113H612.494L618.95 104.384L612.734 96.08H616.334L620.702 102.152L625.094 96.08H628.694L622.454 104.408ZM644.513 96.08L637.649 105.2V113H634.553V105.2L627.713 96.08H631.193L636.089 102.728L641.009 96.08H644.513ZM648.186 110.528H657.186V113H644.73V110.744L653.418 98.552H644.73V96.08H656.922V98.312L648.186 110.528Z" fill="#0059B5"/>
<path d="M459.098 152.026C460.71 152.026 461.906 152.442 462.686 153.274C463.483 154.089 463.882 155.337 463.882 157.018V165H461.828V162.842C461.499 163.587 460.996 164.168 460.32 164.584C459.644 164.983 458.864 165.182 457.98 165.182C457.165 165.182 456.411 165.017 455.718 164.688C455.042 164.359 454.505 163.899 454.106 163.31C453.707 162.721 453.508 162.071 453.508 161.36C453.508 160.407 453.751 159.67 454.236 159.15C454.721 158.613 455.519 158.231 456.628 158.006C457.737 157.763 459.28 157.642 461.256 157.642H461.828V156.784C461.828 155.727 461.611 154.964 461.178 154.496C460.745 154.011 460.043 153.768 459.072 153.768C457.616 153.768 456.169 154.219 454.73 155.12L454.028 153.586C454.687 153.118 455.475 152.745 456.394 152.468C457.33 152.173 458.231 152.026 459.098 152.026ZM458.266 163.518C459.306 163.518 460.155 163.171 460.814 162.478C461.49 161.767 461.828 160.857 461.828 159.748V158.994H461.36C459.835 158.994 458.673 159.063 457.876 159.202C457.079 159.323 456.507 159.54 456.16 159.852C455.831 160.147 455.666 160.589 455.666 161.178C455.666 161.854 455.909 162.417 456.394 162.868C456.897 163.301 457.521 163.518 458.266 163.518ZM474.107 152.026C475.216 152.026 476.196 152.295 477.045 152.832C477.894 153.369 478.553 154.132 479.021 155.12C479.489 156.108 479.723 157.252 479.723 158.552C479.723 159.869 479.489 161.031 479.021 162.036C478.553 163.024 477.894 163.795 477.045 164.35C476.196 164.905 475.216 165.182 474.107 165.182C473.119 165.182 472.252 164.965 471.507 164.532C470.779 164.099 470.224 163.483 469.843 162.686V165H467.737V146.67H469.843V154.522C470.224 153.725 470.779 153.109 471.507 152.676C472.252 152.243 473.119 152.026 474.107 152.026ZM473.691 163.44C474.922 163.44 475.875 163.015 476.551 162.166C477.227 161.299 477.565 160.095 477.565 158.552C477.565 157.044 477.227 155.874 476.551 155.042C475.875 154.21 474.922 153.794 473.691 153.794C472.46 153.794 471.507 154.21 470.831 155.042C470.172 155.874 469.843 157.061 469.843 158.604C469.843 160.147 470.172 161.343 470.831 162.192C471.507 163.024 472.46 163.44 473.691 163.44ZM488.226 165.182C486.978 165.182 485.895 164.913 484.976 164.376C484.057 163.839 483.347 163.085 482.844 162.114C482.359 161.126 482.116 159.973 482.116 158.656C482.116 157.339 482.367 156.186 482.87 155.198C483.39 154.193 484.109 153.413 485.028 152.858C485.964 152.303 487.056 152.026 488.304 152.026C489.153 152.026 489.985 152.182 490.8 152.494C491.615 152.789 492.273 153.187 492.776 153.69L492.074 155.25C490.878 154.279 489.665 153.794 488.434 153.794C487.134 153.794 486.12 154.219 485.392 155.068C484.664 155.917 484.3 157.113 484.3 158.656C484.3 160.181 484.664 161.36 485.392 162.192C486.12 163.024 487.134 163.44 488.434 163.44C489.665 163.44 490.878 162.955 492.074 161.984L492.776 163.544C492.239 164.047 491.563 164.445 490.748 164.74C489.933 165.035 489.093 165.182 488.226 165.182ZM506.543 146.67V165H504.437V162.686C504.056 163.483 503.493 164.099 502.747 164.532C502.019 164.965 501.161 165.182 500.173 165.182C499.064 165.182 498.085 164.905 497.235 164.35C496.386 163.795 495.727 163.024 495.259 162.036C494.791 161.031 494.557 159.869 494.557 158.552C494.557 157.252 494.791 156.108 495.259 155.12C495.727 154.132 496.386 153.369 497.235 152.832C498.085 152.295 499.064 152.026 500.173 152.026C501.161 152.026 502.019 152.243 502.747 152.676C503.493 153.109 504.056 153.725 504.437 154.522V146.67H506.543ZM500.589 163.44C501.82 163.44 502.765 163.024 503.423 162.192C504.099 161.343 504.437 160.147 504.437 158.604C504.437 157.061 504.099 155.874 503.423 155.042C502.765 154.21 501.82 153.794 500.589 153.794C499.359 153.794 498.397 154.21 497.703 155.042C497.027 155.874 496.689 157.044 496.689 158.552C496.689 160.095 497.027 161.299 497.703 162.166C498.397 163.015 499.359 163.44 500.589 163.44ZM521.052 158.994H511.796C511.865 160.467 512.264 161.585 512.992 162.348C513.72 163.093 514.751 163.466 516.086 163.466C517.559 163.466 518.911 162.963 520.142 161.958L520.844 163.492C520.289 164.012 519.579 164.428 518.712 164.74C517.845 165.035 516.961 165.182 516.06 165.182C514.084 165.182 512.524 164.601 511.38 163.44C510.253 162.279 509.69 160.675 509.69 158.63C509.69 157.33 509.941 156.186 510.444 155.198C510.947 154.193 511.649 153.413 512.55 152.858C513.469 152.303 514.509 152.026 515.67 152.026C517.351 152.026 518.669 152.581 519.622 153.69C520.575 154.782 521.052 156.29 521.052 158.214V158.994ZM515.696 153.664C514.587 153.664 513.694 154.011 513.018 154.704C512.359 155.397 511.969 156.377 511.848 157.642H519.206C519.171 156.359 518.851 155.38 518.244 154.704C517.637 154.011 516.788 153.664 515.696 153.664ZM526.938 152.338H530.526V154.002H526.938V165H524.832V154.002H522.362V152.338H524.832V151.922C524.832 150.241 525.248 148.967 526.08 148.1C526.929 147.233 528.229 146.748 529.98 146.644L531.02 146.592L531.176 148.23L529.98 148.308C528.922 148.377 528.151 148.681 527.666 149.218C527.18 149.738 526.938 150.544 526.938 151.636V152.338ZM543.87 152.338V164.142C543.87 166.031 543.385 167.453 542.414 168.406C541.443 169.377 540.005 169.862 538.098 169.862C535.879 169.862 534.016 169.29 532.508 168.146L533.21 166.586C534.059 167.141 534.857 167.539 535.602 167.782C536.347 168.025 537.179 168.146 538.098 168.146C539.311 168.146 540.23 167.817 540.854 167.158C541.478 166.517 541.79 165.572 541.79 164.324V162.088C541.426 162.903 540.863 163.527 540.1 163.96C539.355 164.393 538.471 164.61 537.448 164.61C536.339 164.61 535.351 164.35 534.484 163.83C533.635 163.31 532.967 162.573 532.482 161.62C532.014 160.667 531.78 159.566 531.78 158.318C531.78 157.07 532.014 155.969 532.482 155.016C532.967 154.063 533.635 153.326 534.484 152.806C535.351 152.286 536.339 152.026 537.448 152.026C538.453 152.026 539.329 152.243 540.074 152.676C540.819 153.109 541.383 153.725 541.764 154.522V152.338H543.87ZM537.864 162.868C539.077 162.868 540.031 162.469 540.724 161.672C541.417 160.857 541.764 159.739 541.764 158.318C541.764 156.914 541.417 155.813 540.724 155.016C540.048 154.201 539.095 153.794 537.864 153.794C536.633 153.794 535.663 154.201 534.952 155.016C534.259 155.813 533.912 156.914 533.912 158.318C533.912 159.739 534.259 160.857 534.952 161.672C535.663 162.469 536.633 162.868 537.864 162.868ZM554.138 152.026C557.172 152.026 558.688 153.699 558.688 157.044V165H556.582V157.174C556.582 155.995 556.348 155.137 555.88 154.6C555.43 154.063 554.702 153.794 553.696 153.794C552.535 153.794 551.608 154.149 550.914 154.86C550.221 155.571 549.874 156.533 549.874 157.746V165H547.768V146.67H549.874V154.366C550.29 153.603 550.862 153.023 551.59 152.624C552.336 152.225 553.185 152.026 554.138 152.026ZM562.546 165V152.338H564.652V165H562.546ZM562.338 146.852H564.886V149.218H562.338V146.852ZM570.695 164.87C570.695 166.43 570.313 167.6 569.551 168.38C568.788 169.16 567.609 169.602 566.015 169.706L564.845 169.784L564.689 168.146L565.859 168.068C567.679 167.947 568.589 166.976 568.589 165.156V152.338H570.695V164.87ZM568.381 146.852H570.929V149.218H568.381V146.852ZM585.916 165H583.186L576.738 158.942V165H574.632V146.67H576.738V158.084L582.64 152.364H585.318L579.026 158.422L585.916 165ZM587.632 165V146.67H589.738V165H587.632ZM607.767 152.026C610.575 152.026 611.979 153.699 611.979 157.044V165H609.873V157.148C609.873 155.987 609.665 155.137 609.249 154.6C608.85 154.063 608.2 153.794 607.299 153.794C606.241 153.794 605.409 154.149 604.803 154.86C604.196 155.571 603.893 156.541 603.893 157.772V165H601.787V157.148C601.787 155.969 601.579 155.12 601.163 154.6C600.747 154.063 600.088 153.794 599.187 153.794C598.129 153.794 597.297 154.149 596.691 154.86C596.084 155.571 595.781 156.541 595.781 157.772V165H593.675V152.338H595.755V154.34C596.136 153.595 596.665 153.023 597.341 152.624C598.017 152.225 598.797 152.026 599.681 152.026C601.639 152.026 602.931 152.858 603.555 154.522C603.919 153.742 604.473 153.135 605.219 152.702C605.964 152.251 606.813 152.026 607.767 152.026ZM622.185 152.026C625.219 152.026 626.735 153.699 626.735 157.044V165H624.629V157.174C624.629 155.995 624.395 155.137 623.927 154.6C623.477 154.063 622.749 153.794 621.743 153.794C620.582 153.794 619.655 154.149 618.961 154.86C618.268 155.571 617.921 156.533 617.921 157.746V165H615.815V152.338H617.895V154.418C618.311 153.638 618.892 153.049 619.637 152.65C620.383 152.234 621.232 152.026 622.185 152.026ZM459.202 200.182C458.006 200.182 456.949 199.913 456.03 199.376C455.129 198.839 454.427 198.076 453.924 197.088C453.439 196.083 453.196 194.921 453.196 193.604C453.196 192.287 453.439 191.134 453.924 190.146C454.427 189.141 455.129 188.369 456.03 187.832C456.949 187.295 458.006 187.026 459.202 187.026C460.398 187.026 461.455 187.295 462.374 187.832C463.293 188.369 463.995 189.141 464.48 190.146C464.983 191.134 465.234 192.287 465.234 193.604C465.234 194.921 464.983 196.083 464.48 197.088C463.995 198.076 463.293 198.839 462.374 199.376C461.455 199.913 460.398 200.182 459.202 200.182ZM459.202 198.44C460.45 198.44 461.403 198.033 462.062 197.218C462.738 196.386 463.076 195.181 463.076 193.604C463.076 192.061 462.738 190.874 462.062 190.042C461.386 189.193 460.433 188.768 459.202 188.768C457.971 188.768 457.018 189.193 456.342 190.042C455.666 190.874 455.328 192.061 455.328 193.604C455.328 195.164 455.657 196.36 456.316 197.192C456.992 198.024 457.954 198.44 459.202 198.44ZM474.742 187.026C475.851 187.026 476.831 187.303 477.68 187.858C478.529 188.413 479.188 189.193 479.656 190.198C480.124 191.186 480.358 192.339 480.358 193.656C480.358 194.973 480.124 196.126 479.656 197.114C479.188 198.085 478.529 198.839 477.68 199.376C476.848 199.913 475.869 200.182 474.742 200.182C473.754 200.182 472.887 199.965 472.142 199.532C471.414 199.099 470.859 198.483 470.478 197.686V204.68H468.372V187.338H470.478V189.522C470.859 188.725 471.414 188.109 472.142 187.676C472.887 187.243 473.754 187.026 474.742 187.026ZM474.326 198.44C475.557 198.44 476.51 198.024 477.186 197.192C477.862 196.36 478.2 195.181 478.2 193.656C478.2 192.131 477.862 190.943 477.186 190.094C476.51 189.227 475.557 188.794 474.326 188.794C473.095 188.794 472.142 189.21 471.466 190.042C470.807 190.874 470.478 192.061 470.478 193.604C470.478 195.147 470.807 196.343 471.466 197.192C472.142 198.024 473.095 198.44 474.326 198.44ZM494.737 187.338V204.68H492.631V197.686C492.249 198.483 491.686 199.099 490.941 199.532C490.213 199.965 489.355 200.182 488.367 200.182C487.24 200.182 486.252 199.913 485.403 199.376C484.571 198.839 483.921 198.085 483.453 197.114C482.985 196.126 482.751 194.973 482.751 193.656C482.751 192.339 482.985 191.186 483.453 190.198C483.921 189.193 484.579 188.413 485.429 187.858C486.278 187.303 487.257 187.026 488.367 187.026C489.355 187.026 490.213 187.243 490.941 187.676C491.686 188.109 492.249 188.725 492.631 189.522V187.338H494.737ZM488.783 198.44C490.013 198.44 490.958 198.024 491.617 197.192C492.293 196.343 492.631 195.147 492.631 193.604C492.631 192.061 492.293 190.874 491.617 190.042C490.958 189.21 490.013 188.794 488.783 188.794C487.552 188.794 486.59 189.227 485.897 190.094C485.221 190.943 484.883 192.131 484.883 193.656C484.883 195.181 485.221 196.36 485.897 197.192C486.59 198.024 487.552 198.44 488.783 198.44ZM505.814 188.846L504.436 188.976C503.136 189.097 502.191 189.505 501.602 190.198C501.03 190.891 500.744 191.749 500.744 192.772V200H498.638V187.338H500.692V189.548C501.402 188.075 502.798 187.251 504.878 187.078L505.632 187.026L505.814 188.846ZM511.967 200.182C509.835 200.182 508.145 199.636 506.897 198.544L507.599 196.984C508.275 197.521 508.959 197.911 509.653 198.154C510.363 198.379 511.161 198.492 512.045 198.492C512.981 198.492 513.691 198.336 514.177 198.024C514.679 197.695 514.931 197.227 514.931 196.62C514.931 196.117 514.766 195.719 514.437 195.424C514.107 195.129 513.561 194.895 512.799 194.722L510.667 194.228C509.592 193.985 508.769 193.569 508.197 192.98C507.625 192.391 507.339 191.663 507.339 190.796C507.339 189.669 507.781 188.759 508.665 188.066C509.549 187.373 510.727 187.026 512.201 187.026C513.085 187.026 513.925 187.173 514.723 187.468C515.52 187.745 516.187 188.153 516.725 188.69L516.023 190.224C514.861 189.236 513.587 188.742 512.201 188.742C511.317 188.742 510.623 188.915 510.121 189.262C509.635 189.591 509.393 190.059 509.393 190.666C509.393 191.169 509.54 191.576 509.835 191.888C510.147 192.183 510.641 192.408 511.317 192.564L513.475 193.084C514.653 193.361 515.529 193.786 516.101 194.358C516.673 194.913 516.959 195.641 516.959 196.542C516.959 197.651 516.508 198.535 515.607 199.194C514.723 199.853 513.509 200.182 511.967 200.182ZM525.606 198.492C525.987 198.492 526.368 198.466 526.75 198.414L526.646 200.078C526.247 200.147 525.814 200.182 525.346 200.182C523.82 200.182 522.668 199.783 521.888 198.986C521.125 198.189 520.744 197.079 520.744 195.658V189.002H518.274V187.338H520.744V183.49H522.85V187.338H526.438V189.002H522.85V195.502C522.85 197.495 523.768 198.492 525.606 198.492ZM539.538 187.338V200H537.484V197.842C537.085 198.605 536.522 199.185 535.794 199.584C535.083 199.983 534.277 200.182 533.376 200.182C531.868 200.182 530.732 199.766 529.97 198.934C529.207 198.085 528.826 196.837 528.826 195.19V187.338H530.932V195.138C530.932 196.265 531.157 197.097 531.608 197.634C532.058 198.154 532.769 198.414 533.74 198.414C534.849 198.414 535.742 198.059 536.418 197.348C537.094 196.62 537.432 195.667 537.432 194.488V187.338H539.538ZM552.526 187.364H554.632L549.172 200H547.196L541.762 187.364H543.998L548.236 197.712L552.526 187.364ZM573.993 187.338H576.099L571.393 200H569.365L565.803 190.198L562.215 200H560.213L555.507 187.338H557.691L561.279 197.504L564.945 187.338H566.765L570.379 197.504L573.993 187.338ZM584.574 193.474L589.826 200H587.278L583.326 195.06L579.4 200H576.826L582.078 193.474L577.138 187.338H579.686L583.326 191.94L586.966 187.338H589.54L584.574 193.474ZM600.92 187.364H603.026L595.538 204.68H593.38L595.512 199.844L590.156 187.364H592.392L596.63 197.712L600.92 187.364ZM606.948 198.336H615.086V200H604.348V198.544L612.252 189.002H604.608V187.338H614.8V188.872L606.948 198.336Z" fill="#0059B5"/>
<path d="M461.542 262.206H465.572V264H455.38V262.206H459.41V248.322L456.186 250.35L455.198 248.712L460.008 245.67H461.542V262.206ZM481.604 262.206V264H469.8V262.388L476.222 255.316C477.089 254.345 477.713 253.479 478.094 252.716C478.493 251.936 478.692 251.156 478.692 250.376C478.692 249.371 478.397 248.599 477.808 248.062C477.219 247.525 476.387 247.256 475.312 247.256C473.544 247.256 471.811 247.958 470.112 249.362L469.306 247.724C470.034 247.031 470.944 246.485 472.036 246.086C473.145 245.67 474.255 245.462 475.364 245.462C477.045 245.462 478.371 245.895 479.342 246.762C480.33 247.629 480.824 248.799 480.824 250.272C480.824 251.329 480.581 252.343 480.096 253.314C479.628 254.285 478.848 255.368 477.756 256.564L472.556 262.206H481.604ZM493.502 254.588C494.576 254.9 495.4 255.437 495.972 256.2C496.544 256.945 496.83 257.89 496.83 259.034C496.83 260.629 496.284 261.885 495.192 262.804C494.117 263.723 492.652 264.182 490.798 264.182C489.619 264.182 488.484 263.983 487.392 263.584C486.3 263.185 485.381 262.631 484.636 261.92L485.442 260.282C487.106 261.686 488.874 262.388 490.746 262.388C492.046 262.388 493.034 262.102 493.71 261.53C494.386 260.941 494.724 260.083 494.724 258.956C494.724 256.72 493.32 255.602 490.512 255.602H488.406V253.808H490.096C491.448 253.808 492.488 253.513 493.216 252.924C493.944 252.317 494.308 251.451 494.308 250.324C494.308 249.336 494.013 248.582 493.424 248.062C492.834 247.525 491.994 247.256 490.902 247.256C489.134 247.256 487.4 247.958 485.702 249.362L484.896 247.724C485.641 247.013 486.551 246.459 487.626 246.06C488.7 245.661 489.818 245.462 490.98 245.462C492.644 245.462 493.961 245.887 494.932 246.736C495.92 247.568 496.414 248.695 496.414 250.116C496.414 251.173 496.154 252.101 495.634 252.898C495.131 253.678 494.42 254.241 493.502 254.588ZM513.434 258.254V260.022H510.678V264H508.572V260.022H500.096V258.41L508.936 245.67H510.678V258.254H513.434ZM502.306 258.254H508.572V249.232L502.306 258.254ZM522.939 252.508C524.101 252.508 525.106 252.751 525.955 253.236C526.822 253.721 527.489 254.406 527.957 255.29C528.425 256.157 528.659 257.162 528.659 258.306C528.659 259.467 528.399 260.49 527.879 261.374C527.377 262.258 526.657 262.951 525.721 263.454C524.785 263.939 523.693 264.182 522.445 264.182C521.336 264.182 520.235 263.983 519.143 263.584C518.069 263.168 517.159 262.613 516.413 261.92L517.219 260.282C518.918 261.686 520.66 262.388 522.445 262.388C523.728 262.388 524.733 262.024 525.461 261.296C526.189 260.568 526.553 259.58 526.553 258.332C526.553 257.119 526.189 256.139 525.461 255.394C524.751 254.649 523.797 254.276 522.601 254.276C520.851 254.276 519.455 254.987 518.415 256.408H516.933V245.67H527.931V247.438H519.039V253.964C519.525 253.496 520.097 253.141 520.755 252.898C521.431 252.638 522.159 252.508 522.939 252.508ZM538.529 252.482C539.639 252.482 540.627 252.725 541.493 253.21C542.36 253.695 543.036 254.38 543.521 255.264C544.007 256.148 544.249 257.162 544.249 258.306C544.249 259.433 543.998 260.447 543.495 261.348C542.993 262.249 542.291 262.951 541.389 263.454C540.488 263.957 539.474 264.208 538.347 264.208C536.129 264.208 534.413 263.437 533.199 261.894C532.003 260.351 531.405 258.15 531.405 255.29C531.405 253.227 531.683 251.459 532.237 249.986C532.809 248.513 533.624 247.395 534.681 246.632C535.739 245.852 537.004 245.462 538.477 245.462C539.535 245.462 540.566 245.661 541.571 246.06C542.577 246.441 543.461 246.996 544.223 247.724L543.417 249.362C542.551 248.634 541.719 248.105 540.921 247.776C540.141 247.429 539.344 247.256 538.529 247.256C536.952 247.256 535.721 247.958 534.837 249.362C533.971 250.749 533.537 252.716 533.537 255.264V255.654C533.936 254.683 534.577 253.912 535.461 253.34C536.345 252.768 537.368 252.482 538.529 252.482ZM538.243 262.414C539.422 262.414 540.367 262.041 541.077 261.296C541.788 260.551 542.143 259.563 542.143 258.332C542.143 257.119 541.779 256.139 541.051 255.394C540.341 254.649 539.396 254.276 538.217 254.276C537.021 254.276 536.042 254.657 535.279 255.42C534.534 256.165 534.161 257.136 534.161 258.332C534.161 259.545 534.534 260.533 535.279 261.296C536.042 262.041 537.03 262.414 538.243 262.414ZM547.256 245.67H559.372V247.256L550.792 264H548.478L557.032 247.464H547.256V245.67ZM572.076 254.588C573.15 254.917 573.982 255.481 574.572 256.278C575.178 257.075 575.482 258.029 575.482 259.138C575.482 260.715 574.91 261.955 573.766 262.856C572.622 263.74 571.001 264.182 568.904 264.182C566.806 264.182 565.186 263.74 564.042 262.856C562.898 261.955 562.326 260.715 562.326 259.138C562.326 258.011 562.629 257.049 563.236 256.252C563.842 255.455 564.683 254.9 565.758 254.588C564.839 254.241 564.111 253.695 563.574 252.95C563.036 252.205 562.768 251.329 562.768 250.324C562.768 248.833 563.305 247.655 564.38 246.788C565.472 245.904 566.98 245.462 568.904 245.462C570.828 245.462 572.327 245.904 573.402 246.788C574.494 247.655 575.04 248.833 575.04 250.324C575.04 251.329 574.771 252.213 574.234 252.976C573.696 253.721 572.977 254.259 572.076 254.588ZM564.874 250.48C564.874 251.555 565.212 252.378 565.888 252.95C566.581 253.522 567.586 253.808 568.904 253.808C570.221 253.808 571.218 253.522 571.894 252.95C572.587 252.378 572.934 251.555 572.934 250.48C572.934 249.457 572.587 248.66 571.894 248.088C571.218 247.516 570.221 247.23 568.904 247.23C567.586 247.23 566.581 247.516 565.888 248.088C565.212 248.66 564.874 249.457 564.874 250.48ZM568.904 262.414C571.885 262.414 573.376 261.279 573.376 259.008C573.376 256.737 571.885 255.602 568.904 255.602C565.922 255.602 564.432 256.737 564.432 259.008C564.432 261.279 565.922 262.414 568.904 262.414ZM583.921 245.462C586.14 245.462 587.847 246.233 589.043 247.776C590.257 249.319 590.863 251.52 590.863 254.38C590.863 257.483 590.239 259.901 588.991 261.634C587.743 263.35 586.001 264.208 583.765 264.208C582.725 264.208 581.703 264.017 580.697 263.636C579.692 263.237 578.808 262.674 578.045 261.946L578.851 260.308C579.718 261.036 580.541 261.573 581.321 261.92C582.119 262.249 582.925 262.414 583.739 262.414C585.317 262.414 586.539 261.721 587.405 260.334C588.272 258.93 588.705 256.954 588.705 254.406V254.068C588.307 255.039 587.657 255.801 586.755 256.356C585.871 256.911 584.866 257.188 583.739 257.188C582.63 257.188 581.642 256.945 580.775 256.46C579.909 255.975 579.233 255.29 578.747 254.406C578.262 253.522 578.019 252.508 578.019 251.364C578.019 250.237 578.271 249.223 578.773 248.322C579.276 247.421 579.978 246.719 580.879 246.216C581.781 245.713 582.795 245.462 583.921 245.462ZM584.051 255.394C585.247 255.394 586.218 255.021 586.963 254.276C587.726 253.513 588.107 252.534 588.107 251.338C588.107 250.125 587.726 249.145 586.963 248.4C586.218 247.637 585.239 247.256 584.025 247.256C582.847 247.256 581.902 247.629 581.191 248.374C580.481 249.119 580.125 250.107 580.125 251.338C580.125 252.569 580.481 253.557 581.191 254.302C581.919 255.03 582.873 255.394 584.051 255.394ZM600.083 264.208C597.986 264.208 596.391 263.411 595.299 261.816C594.207 260.221 593.661 257.899 593.661 254.848C593.661 251.78 594.207 249.449 595.299 247.854C596.391 246.259 597.986 245.462 600.083 245.462C602.181 245.462 603.775 246.259 604.867 247.854C605.959 249.431 606.505 251.754 606.505 254.822C606.505 257.89 605.959 260.221 604.867 261.816C603.775 263.411 602.181 264.208 600.083 264.208ZM600.083 262.414C601.539 262.414 602.614 261.799 603.307 260.568C604.001 259.337 604.347 257.422 604.347 254.822C604.347 252.205 604.001 250.298 603.307 249.102C602.631 247.889 601.557 247.282 600.083 247.282C598.627 247.282 597.553 247.889 596.859 249.102C596.166 250.315 595.819 252.222 595.819 254.822C595.819 257.422 596.166 259.337 596.859 260.568C597.553 261.799 598.627 262.414 600.083 262.414Z" fill="#0059B5"/>
<line x1="418.25" y1="32" x2="418.25" y2="316" stroke="#0059B5" stroke-width="0.5"/>
</svg>
